<?xml version="1.0" encoding="UTF-8" standalone="no"?>
<!DOCTYPE svg PUBLIC "-//W3C//DTD SVG 1.1//EN"
 "http://www.w3.org/Graphics/SVG/1.1/DTD/svg11.dtd">
<!-- Generated by graphviz version 2.43.0 (0)
 -->
<!-- Title: G Pages: 1 -->
<svg width="945pt" height="306pt"
 viewBox="0.00 0.00 945.43 306.00" xmlns="http://www.w3.org/2000/svg" xmlns:xlink="http://www.w3.org/1999/xlink">
<g id="graph0" class="graph" transform="scale(1 1) rotate(0) translate(4 302)">
<title>G</title>
<polygon fill="white" stroke="transparent" points="-4,4 -4,-302 941.43,-302 941.43,4 -4,4"/>
<g id="clust1" class="cluster">
<title>cluster_G</title>
<path fill="#808080" fill-opacity="0.094118" stroke="black" d="M20,-8C20,-8 917.43,-8 917.43,-8 923.43,-8 929.43,-14 929.43,-20 929.43,-20 929.43,-278 929.43,-278 929.43,-284 923.43,-290 917.43,-290 917.43,-290 20,-290 20,-290 14,-290 8,-284 8,-278 8,-278 8,-20 8,-20 8,-14 14,-8 20,-8"/>
</g>
<g id="clust2" class="cluster">
<title>cluster_run_woden</title>
<path fill="#808080" fill-opacity="0.094118" stroke="black" d="M303.63,-16C303.63,-16 831.43,-16 831.43,-16 837.43,-16 843.43,-22 843.43,-28 843.43,-28 843.43,-133 843.43,-133 843.43,-139 837.43,-145 831.43,-145 831.43,-145 303.63,-145 303.63,-145 297.63,-145 291.63,-139 291.63,-133 291.63,-133 291.63,-28 291.63,-28 291.63,-22 297.63,-16 303.63,-16"/>
<text text-anchor="middle" x="567.53" y="-129.8" font-family="Times,serif" font-size="14.00">run_woden</text>
</g>
<g id="clust3" class="cluster">
<title>cluster_wodenpy__observational__calc_obs</title>
<path fill="#808080" fill-opacity="0.094118" stroke="black" d="M531.36,-153C531.36,-153 909.43,-153 909.43,-153 915.43,-153 921.43,-159 921.43,-165 921.43,-165 921.43,-270 921.43,-270 921.43,-276 915.43,-282 909.43,-282 909.43,-282 531.36,-282 531.36,-282 525.36,-282 519.36,-276 519.36,-270 519.36,-270 519.36,-165 519.36,-165 519.36,-159 525.36,-153 531.36,-153"/>
<text text-anchor="middle" x="720.39" y="-266.8" font-family="Times,serif" font-size="14.00">wodenpy.observational.calc_obs</text>
</g>
<!-- run_woden -->
<g id="node1" class="node">
<title>run_woden</title>
<ellipse fill="#ffffff" fill-opacity="0.698039" stroke="black" cx="77.74" cy="-96" rx="61.99" ry="18"/>
<text text-anchor="middle" x="77.74" y="-92.3" font-family="Times,serif" font-size="14.00" fill="#000000">run_woden</text>
</g>
<!-- run_woden__main -->
<g id="node3" class="node">
<title>run_woden__main</title>
<ellipse fill="#fecccc" fill-opacity="0.698039" stroke="black" cx="333.43" cy="-96" rx="33.6" ry="18"/>
<text text-anchor="middle" x="333.43" y="-92.3" font-family="Times,serif" font-size="14.00" fill="#000000">main</text>
</g>
<!-- run_woden&#45;&gt;run_woden__main -->
<g id="edge2" class="edge">
<title>run_woden&#45;&gt;run_woden__main</title>
<path fill="none" stroke="#838b8b" stroke-dasharray="5,2" d="M136.31,-90.24C183.21,-88.75 248.33,-88.94 290.43,-90.83"/>
<polygon fill="#838b8b" stroke="#838b8b" points="290.44,-94.33 300.61,-91.34 290.8,-87.34 290.44,-94.33"/>
</g>
<!-- run_woden&#45;&gt;run_woden__main -->
<g id="edge6" class="edge">
<title>run_woden&#45;&gt;run_woden__main</title>
<path fill="none" stroke="#000000" d="M136.31,-101.76C183.21,-103.25 248.33,-103.06 290.43,-101.17"/>
<polygon fill="#000000" stroke="#000000" points="290.8,-104.66 300.61,-100.66 290.44,-97.67 290.8,-104.66"/>
</g>
<!-- run_woden__read_skymodel_thread -->
<g id="node4" class="node">
<title>run_woden__read_skymodel_thread</title>
<ellipse fill="#fecccc" fill-opacity="0.698039" stroke="black" cx="720.39" cy="-42" rx="115.08" ry="18"/>
<text text-anchor="middle" x="720.39" y="-38.3" font-family="Times,serif" font-size="14.00" fill="#000000">read_skymodel_thread</text>
</g>
<!-- run_woden&#45;&gt;run_woden__read_skymodel_thread -->
<g id="edge1" class="edge">
<title>run_woden&#45;&gt;run_woden__read_skymodel_thread</title>
<path fill="none" stroke="#838b8b" stroke-dasharray="5,2" d="M107.39,-80.06C126.14,-70.52 151.52,-59.25 175.49,-54 323.56,-21.54 499.74,-25.06 610.59,-32.21"/>
<polygon fill="#838b8b" stroke="#838b8b" points="610.57,-35.72 620.78,-32.89 611.03,-28.73 610.57,-35.72"/>
</g>
<!-- run_woden__woden_thread -->
<g id="node5" class="node">
<title>run_woden__woden_thread</title>
<ellipse fill="#fecccc" fill-opacity="0.698039" stroke="black" cx="720.39" cy="-96" rx="76.09" ry="18"/>
<text text-anchor="middle" x="720.39" y="-92.3" font-family="Times,serif" font-size="14.00" fill="#000000">woden_thread</text>
</g>
<!-- run_woden&#45;&gt;run_woden__woden_thread -->
<g id="edge3" class="edge">
<title>run_woden&#45;&gt;run_woden__woden_thread</title>
<path fill="none" stroke="#838b8b" stroke-dasharray="5,2" d="M118.24,-82.35C135.58,-77.05 156.31,-71.63 175.49,-69 314.58,-49.95 351.22,-60.73 491.36,-69 543.05,-72.05 600.99,-78.95 645.53,-85.02"/>
<polygon fill="#838b8b" stroke="#838b8b" points="645.3,-88.52 655.68,-86.42 646.25,-81.59 645.3,-88.52"/>
</g>
<!-- wodenpy__observational__calc_obs__calc_jdcal -->
<g id="node6" class="node">
<title>wodenpy__observational__calc_obs__calc_jdcal</title>
<ellipse fill="#65ff65" fill-opacity="0.698039" stroke="black" cx="720.39" cy="-179" rx="55.49" ry="18"/>
<text text-anchor="middle" x="720.39" y="-175.3" font-family="Times,serif" font-size="14.00" fill="#000000">calc_jdcal</text>
</g>
<!-- run_woden&#45;&gt;wodenpy__observational__calc_obs__calc_jdcal -->
<g id="edge8" class="edge">
<title>run_woden&#45;&gt;wodenpy__observational__calc_obs__calc_jdcal</title>
<path fill="none" stroke="#000000" d="M102.09,-112.69C120.92,-125.16 148.6,-141.32 175.49,-149 181.19,-150.63 512.34,-168.15 655.07,-175.64"/>
<polygon fill="#000000" stroke="#000000" points="655.26,-179.15 665.43,-176.18 655.62,-172.16 655.26,-179.15"/>
</g>
<!-- wodenpy__observational__calc_obs__get_uvfits_date_and_position_constants -->
<g id="node7" class="node">
<title>wodenpy__observational__calc_obs__get_uvfits_date_and_position_constants</title>
<ellipse fill="#65ff65" fill-opacity="0.698039" stroke="black" cx="720.39" cy="-233" rx="193.07" ry="18"/>
<text text-anchor="middle" x="720.39" y="-229.3" font-family="Times,serif" font-size="14.00" fill="#000000">get_uvfits_date_and_position_constants</text>
</g>
<!-- run_woden&#45;&gt;wodenpy__observational__calc_obs__get_uvfits_date_and_position_constants -->
<g id="edge7" class="edge">
<title>run_woden&#45;&gt;wodenpy__observational__calc_obs__get_uvfits_date_and_position_constants</title>
<path fill="none" stroke="#000000" d="M86.48,-114.24C99.82,-143.04 130.16,-198.14 175.49,-221 239.97,-253.52 421.5,-251.47 557.23,-244.55"/>
<polygon fill="#000000" stroke="#000000" points="557.53,-248.04 567.33,-244.02 557.16,-241.05 557.53,-248.04"/>
</g>
<!-- wodenpy__observational__calc_obs -->
<g id="node2" class="node">
<title>wodenpy__observational__calc_obs</title>
<ellipse fill="#ffffff" fill-opacity="0.698039" stroke="black" cx="333.43" cy="-194" rx="157.87" ry="18"/>
<text text-anchor="middle" x="333.43" y="-190.3" font-family="Times,serif" font-size="14.00" fill="#000000">wodenpy.observational.calc_obs</text>
</g>
<!-- wodenpy__observational__calc_obs&#45;&gt;wodenpy__observational__calc_obs__calc_jdcal -->
<g id="edge5" class="edge">
<title>wodenpy__observational__calc_obs&#45;&gt;wodenpy__observational__calc_obs__calc_jdcal</title>
<path fill="none" stroke="#838b8b" stroke-dasharray="5,2" d="M482.99,-188.21C542.75,-185.88 608.47,-183.32 655.42,-181.49"/>
<polygon fill="#838b8b" stroke="#838b8b" points="655.59,-184.99 665.44,-181.1 655.31,-177.99 655.59,-184.99"/>
</g>
<!-- wodenpy__observational__calc_obs&#45;&gt;wodenpy__observational__calc_obs__get_uvfits_date_and_position_constants -->
<g id="edge4" class="edge">
<title>wodenpy__observational__calc_obs&#45;&gt;wodenpy__observational__calc_obs__get_uvfits_date_and_position_constants</title>
<path fill="none" stroke="#838b8b" stroke-dasharray="5,2" d="M452.02,-205.91C492.14,-209.98 537.41,-214.56 579.13,-218.79"/>
<polygon fill="#838b8b" stroke="#838b8b" points="578.79,-222.27 589.09,-219.8 579.5,-215.31 578.79,-222.27"/>
</g>
<!-- run_woden__main&#45;&gt;run_woden__read_skymodel_thread -->
<g id="edge10" class="edge">
<title>run_woden__main&#45;&gt;run_woden__read_skymodel_thread</title>
<path fill="none" stroke="#000000" d="M366.34,-91.88C398.08,-87.7 448.16,-80.88 491.36,-74 503.84,-72.01 506.87,-70.96 519.36,-69 552.01,-63.88 587.74,-58.87 619.86,-54.59"/>
<polygon fill="#000000" stroke="#000000" points="620.7,-58 630.15,-53.22 619.78,-51.07 620.7,-58"/>
</g>
<!-- run_woden__main&#45;&gt;run_woden__woden_thread -->
<g id="edge9" class="edge">
<title>run_woden__main&#45;&gt;run_woden__woden_thread</title>
<path fill="none" stroke="#000000" d="M367.25,-96C425.78,-96 549.92,-96 634.02,-96"/>
<polygon fill="#000000" stroke="#000000" points="634.08,-99.5 644.08,-96 634.08,-92.5 634.08,-99.5"/>
</g>
<!-- run_woden__main&#45;&gt;wodenpy__observational__calc_obs__calc_jdcal -->
<g id="edge12" class="edge">
<title>run_woden__main&#45;&gt;wodenpy__observational__calc_obs__calc_jdcal</title>
<path fill="none" stroke="#000000" d="M367.36,-94.26C400.57,-93.91 452.35,-97.31 491.36,-118 507.76,-126.7 503,-140.22 519.36,-149 561.01,-171.35 614.16,-178.49 655.2,-180.24"/>
<polygon fill="#000000" stroke="#000000" points="655.25,-183.74 665.36,-180.57 655.48,-176.74 655.25,-183.74"/>
</g>
<!-- run_woden__main&#45;&gt;wodenpy__observational__calc_obs__get_uvfits_date_and_position_constants -->
<g id="edge11" class="edge">
<title>run_woden__main&#45;&gt;wodenpy__observational__calc_obs__get_uvfits_date_and_position_constants</title>
<path fill="none" stroke="#000000" d="M366.35,-91.29C401.17,-88.04 456.57,-88.63 491.36,-118 522.73,-144.47 487.93,-179.61 519.36,-206 525.92,-211.51 533.05,-216.21 540.58,-220.21"/>
<polygon fill="#000000" stroke="#000000" points="539.07,-223.37 549.59,-224.59 542.13,-217.07 539.07,-223.37"/>
</g>
</g>
</svg>
