<?xml version="1.0" encoding="UTF-8" standalone="no"?>
<!DOCTYPE svg PUBLIC "-//W3C//DTD SVG 1.1//EN"
 "http://www.w3.org/Graphics/SVG/1.1/DTD/svg11.dtd">
<!-- Generated by graphviz version 2.43.0 (0)
 -->
<!-- Title: G Pages: 1 -->
<svg width="1083pt" height="369pt"
 viewBox="0.00 0.00 1082.82 369.00" xmlns="http://www.w3.org/2000/svg" xmlns:xlink="http://www.w3.org/1999/xlink">
<g id="graph0" class="graph" transform="scale(1 1) rotate(0) translate(4 365)">
<title>G</title>
<polygon fill="white" stroke="transparent" points="-4,4 -4,-365 1078.82,-365 1078.82,4 -4,4"/>
<g id="clust1" class="cluster">
<title>cluster_G</title>
<path fill="#808080" fill-opacity="0.094118" stroke="black" d="M20,-8C20,-8 1054.82,-8 1054.82,-8 1060.82,-8 1066.82,-14 1066.82,-20 1066.82,-20 1066.82,-341 1066.82,-341 1066.82,-347 1060.82,-353 1054.82,-353 1054.82,-353 20,-353 20,-353 14,-353 8,-347 8,-341 8,-341 8,-20 8,-20 8,-14 14,-8 20,-8"/>
</g>
<g id="clust2" class="cluster">
<title>cluster_run_woden</title>
<path fill="#808080" fill-opacity="0.094118" stroke="black" d="M299.73,-16C299.73,-16 768.39,-16 768.39,-16 774.39,-16 780.39,-22 780.39,-28 780.39,-28 780.39,-133 780.39,-133 780.39,-139 774.39,-145 768.39,-145 768.39,-145 299.73,-145 299.73,-145 293.73,-145 287.73,-139 287.73,-133 287.73,-133 287.73,-28 287.73,-28 287.73,-22 293.73,-16 299.73,-16"/>
<text text-anchor="middle" x="534.06" y="-129.8" font-family="Times,serif" font-size="14.00">run_woden</text>
</g>
<g id="clust3" class="cluster">
<title>cluster_wodenpy__uvfits__wodenpy_uvfits</title>
<path fill="#808080" fill-opacity="0.094118" stroke="black" d="M523.56,-153C523.56,-153 1046.82,-153 1046.82,-153 1052.82,-153 1058.82,-159 1058.82,-165 1058.82,-165 1058.82,-324 1058.82,-324 1058.82,-330 1052.82,-336 1046.82,-336 1046.82,-336 523.56,-336 523.56,-336 517.56,-336 511.56,-330 511.56,-324 511.56,-324 511.56,-165 511.56,-165 511.56,-159 517.56,-153 523.56,-153"/>
<text text-anchor="middle" x="785.19" y="-320.8" font-family="Times,serif" font-size="14.00">wodenpy.uvfits.wodenpy_uvfits</text>
</g>
<!-- run_woden -->
<g id="node1" class="node">
<title>run_woden</title>
<ellipse fill="#ffffff" fill-opacity="0.698039" stroke="black" cx="77.74" cy="-96" rx="61.99" ry="18"/>
<text text-anchor="middle" x="77.74" y="-92.3" font-family="Times,serif" font-size="14.00" fill="#000000">run_woden</text>
</g>
<!-- run_woden__main -->
<g id="node3" class="node">
<title>run_woden__main</title>
<ellipse fill="#fecccc" fill-opacity="0.698039" stroke="black" cx="329.53" cy="-96" rx="33.6" ry="18"/>
<text text-anchor="middle" x="329.53" y="-92.3" font-family="Times,serif" font-size="14.00" fill="#000000">main</text>
</g>
<!-- run_woden&#45;&gt;run_woden__main -->
<g id="edge1" class="edge">
<title>run_woden&#45;&gt;run_woden__main</title>
<path fill="none" stroke="#838b8b" stroke-dasharray="5,2" d="M136.36,-90.21C182.22,-88.76 245.33,-88.95 286.51,-90.8"/>
<polygon fill="#838b8b" stroke="#838b8b" points="286.58,-94.31 296.74,-91.32 286.94,-87.32 286.58,-94.31"/>
</g>
<!-- run_woden&#45;&gt;run_woden__main -->
<g id="edge9" class="edge">
<title>run_woden&#45;&gt;run_woden__main</title>
<path fill="none" stroke="#000000" d="M136.36,-101.79C182.22,-103.24 245.33,-103.05 286.51,-101.2"/>
<polygon fill="#000000" stroke="#000000" points="286.94,-104.68 296.74,-100.68 286.58,-97.69 286.94,-104.68"/>
</g>
<!-- run_woden__read_skymodel_thread -->
<g id="node4" class="node">
<title>run_woden__read_skymodel_thread</title>
<ellipse fill="#fecccc" fill-opacity="0.698039" stroke="black" cx="657.35" cy="-96" rx="115.08" ry="18"/>
<text text-anchor="middle" x="657.35" y="-92.3" font-family="Times,serif" font-size="14.00" fill="#000000">read_skymodel_thread</text>
</g>
<!-- run_woden&#45;&gt;run_woden__read_skymodel_thread -->
<g id="edge2" class="edge">
<title>run_woden&#45;&gt;run_woden__read_skymodel_thread</title>
<path fill="none" stroke="#838b8b" stroke-dasharray="5,2" d="M118.24,-82.35C135.58,-77.05 156.31,-71.63 175.49,-69 311.14,-50.43 347.05,-58.4 483.56,-69 513.21,-71.3 545.47,-75.8 574,-80.47"/>
<polygon fill="#838b8b" stroke="#838b8b" points="573.48,-83.93 583.92,-82.12 574.63,-77.02 573.48,-83.93"/>
</g>
<!-- run_woden__woden_thread -->
<g id="node5" class="node">
<title>run_woden__woden_thread</title>
<ellipse fill="#fecccc" fill-opacity="0.698039" stroke="black" cx="657.35" cy="-42" rx="76.09" ry="18"/>
<text text-anchor="middle" x="657.35" y="-38.3" font-family="Times,serif" font-size="14.00" fill="#000000">woden_thread</text>
</g>
<!-- run_woden&#45;&gt;run_woden__woden_thread -->
<g id="edge3" class="edge">
<title>run_woden&#45;&gt;run_woden__woden_thread</title>
<path fill="none" stroke="#838b8b" stroke-dasharray="5,2" d="M106.93,-79.9C125.7,-70.09 151.28,-58.43 175.49,-53 313.86,-21.98 480.24,-27.27 576.59,-34.35"/>
<polygon fill="#838b8b" stroke="#838b8b" points="576.6,-37.86 586.84,-35.13 577.13,-30.88 576.6,-37.86"/>
</g>
<!-- wodenpy__uvfits__wodenpy_uvfits__create_uvfits -->
<g id="node8" class="node">
<title>wodenpy__uvfits__wodenpy_uvfits__create_uvfits</title>
<ellipse fill="#65ff65" fill-opacity="0.698039" stroke="black" cx="657.35" cy="-233" rx="70.39" ry="18"/>
<text text-anchor="middle" x="657.35" y="-229.3" font-family="Times,serif" font-size="14.00" fill="#000000">create_uvfits</text>
</g>
<!-- run_woden&#45;&gt;wodenpy__uvfits__wodenpy_uvfits__create_uvfits -->
<g id="edge12" class="edge">
<title>run_woden&#45;&gt;wodenpy__uvfits__wodenpy_uvfits__create_uvfits</title>
<path fill="none" stroke="#000000" d="M95.05,-113.49C112.93,-131.43 143.37,-158.57 175.49,-172 308.77,-227.73 479.54,-236.15 577.58,-235.64"/>
<polygon fill="#000000" stroke="#000000" points="577.74,-239.14 587.71,-235.56 577.69,-232.14 577.74,-239.14"/>
</g>
<!-- wodenpy__uvfits__wodenpy_uvfits__make_antenna_table -->
<g id="node9" class="node">
<title>wodenpy__uvfits__wodenpy_uvfits__make_antenna_table</title>
<ellipse fill="#65ff65" fill-opacity="0.698039" stroke="black" cx="657.35" cy="-179" rx="105.08" ry="18"/>
<text text-anchor="middle" x="657.35" y="-175.3" font-family="Times,serif" font-size="14.00" fill="#000000">make_antenna_table</text>
</g>
<!-- run_woden&#45;&gt;wodenpy__uvfits__wodenpy_uvfits__make_antenna_table -->
<g id="edge10" class="edge">
<title>run_woden&#45;&gt;wodenpy__uvfits__wodenpy_uvfits__make_antenna_table</title>
<path fill="none" stroke="#000000" d="M102.1,-112.64C120.94,-125.08 148.63,-141.23 175.49,-149 299.78,-184.97 449.43,-188.43 548.42,-185.53"/>
<polygon fill="#000000" stroke="#000000" points="548.55,-189.02 558.44,-185.21 548.33,-182.03 548.55,-189.02"/>
</g>
<!-- wodenpy__uvfits__wodenpy_uvfits__make_baseline_date_arrays -->
<g id="node10" class="node">
<title>wodenpy__uvfits__wodenpy_uvfits__make_baseline_date_arrays</title>
<ellipse fill="#65ff65" fill-opacity="0.698039" stroke="black" cx="657.35" cy="-287" rx="137.58" ry="18"/>
<text text-anchor="middle" x="657.35" y="-283.3" font-family="Times,serif" font-size="14.00" fill="#000000">make_baseline_date_arrays</text>
</g>
<!-- run_woden&#45;&gt;wodenpy__uvfits__wodenpy_uvfits__make_baseline_date_arrays -->
<g id="edge11" class="edge">
<title>run_woden&#45;&gt;wodenpy__uvfits__wodenpy_uvfits__make_baseline_date_arrays</title>
<path fill="none" stroke="#000000" d="M88.89,-114.03C104.16,-139.31 135.54,-184.69 175.49,-207 183.84,-211.66 420.37,-249.66 558.52,-271.57"/>
<polygon fill="#000000" stroke="#000000" points="558.28,-275.08 568.7,-273.19 559.37,-268.16 558.28,-275.08"/>
</g>
<!-- wodenpy__uvfits__wodenpy_uvfits -->
<g id="node2" class="node">
<title>wodenpy__uvfits__wodenpy_uvfits</title>
<ellipse fill="#ffffff" fill-opacity="0.698039" stroke="black" cx="329.53" cy="-287" rx="154.07" ry="18"/>
<text text-anchor="middle" x="329.53" y="-283.3" font-family="Times,serif" font-size="14.00" fill="#000000">wodenpy.uvfits.wodenpy_uvfits</text>
</g>
<!-- wodenpy__uvfits__wodenpy_uvfits__RTS_decode_baseline -->
<g id="node6" class="node">
<title>wodenpy__uvfits__wodenpy_uvfits__RTS_decode_baseline</title>
<ellipse fill="#65ff65" fill-opacity="0.698039" stroke="black" cx="940.98" cy="-233" rx="109.68" ry="18"/>
<text text-anchor="middle" x="940.98" y="-229.3" font-family="Times,serif" font-size="14.00" fill="#000000">RTS_decode_baseline</text>
</g>
<!-- wodenpy__uvfits__wodenpy_uvfits&#45;&gt;wodenpy__uvfits__wodenpy_uvfits__RTS_decode_baseline -->
<g id="edge5" class="edge">
<title>wodenpy__uvfits__wodenpy_uvfits&#45;&gt;wodenpy__uvfits__wodenpy_uvfits__RTS_decode_baseline</title>
<path fill="none" stroke="#838b8b" stroke-dasharray="5,2" d="M414.06,-302.1C444.62,-306.92 479.55,-311.63 511.56,-314 574.41,-318.66 739.58,-343.73 795.14,-314 820.57,-300.39 807.54,-276.59 831.14,-260 837.21,-255.73 843.9,-252.13 850.87,-249.1"/>
<polygon fill="#838b8b" stroke="#838b8b" points="852.5,-252.22 860.53,-245.3 849.94,-245.7 852.5,-252.22"/>
</g>
<!-- wodenpy__uvfits__wodenpy_uvfits__RTS_encode_baseline -->
<g id="node7" class="node">
<title>wodenpy__uvfits__wodenpy_uvfits__RTS_encode_baseline</title>
<ellipse fill="#65ff65" fill-opacity="0.698039" stroke="black" cx="940.98" cy="-287" rx="109.68" ry="18"/>
<text text-anchor="middle" x="940.98" y="-283.3" font-family="Times,serif" font-size="14.00" fill="#000000">RTS_encode_baseline</text>
</g>
<!-- wodenpy__uvfits__wodenpy_uvfits&#45;&gt;wodenpy__uvfits__wodenpy_uvfits__RTS_encode_baseline -->
<g id="edge4" class="edge">
<title>wodenpy__uvfits__wodenpy_uvfits&#45;&gt;wodenpy__uvfits__wodenpy_uvfits__RTS_encode_baseline</title>
<path fill="none" stroke="#838b8b" stroke-dasharray="5,2" d="M387.42,-303.71C422.79,-313.22 469.41,-324.17 511.56,-329 636.78,-343.33 670.36,-346.73 795.14,-329 825.73,-324.65 858.89,-315.39 885.76,-306.67"/>
<polygon fill="#838b8b" stroke="#838b8b" points="886.96,-309.95 895.35,-303.49 884.76,-303.31 886.96,-309.95"/>
</g>
<!-- wodenpy__uvfits__wodenpy_uvfits&#45;&gt;wodenpy__uvfits__wodenpy_uvfits__create_uvfits -->
<g id="edge8" class="edge">
<title>wodenpy__uvfits__wodenpy_uvfits&#45;&gt;wodenpy__uvfits__wodenpy_uvfits__create_uvfits</title>
<path fill="none" stroke="#838b8b" stroke-dasharray="5,2" d="M419.13,-272.32C472.37,-263.49 539.09,-252.43 588.2,-244.3"/>
<polygon fill="#838b8b" stroke="#838b8b" points="588.79,-247.74 598.09,-242.66 587.65,-240.84 588.79,-247.74"/>
</g>
<!-- wodenpy__uvfits__wodenpy_uvfits&#45;&gt;wodenpy__uvfits__wodenpy_uvfits__make_antenna_table -->
<g id="edge6" class="edge">
<title>wodenpy__uvfits__wodenpy_uvfits&#45;&gt;wodenpy__uvfits__wodenpy_uvfits__make_antenna_table</title>
<path fill="none" stroke="#838b8b" stroke-dasharray="5,2" d="M363.63,-269.32C399.24,-250.99 457.99,-222.72 511.56,-206 528.86,-200.6 547.68,-196.12 565.85,-192.47"/>
<polygon fill="#838b8b" stroke="#838b8b" points="566.72,-195.86 575.86,-190.52 565.38,-188.99 566.72,-195.86"/>
</g>
<!-- wodenpy__uvfits__wodenpy_uvfits&#45;&gt;wodenpy__uvfits__wodenpy_uvfits__make_baseline_date_arrays -->
<g id="edge7" class="edge">
<title>wodenpy__uvfits__wodenpy_uvfits&#45;&gt;wodenpy__uvfits__wodenpy_uvfits__make_baseline_date_arrays</title>
<path fill="none" stroke="#838b8b" stroke-dasharray="5,2" d="M483.9,-287C492.35,-287 500.83,-287 509.25,-287"/>
<polygon fill="#838b8b" stroke="#838b8b" points="509.5,-290.5 519.5,-287 509.5,-283.5 509.5,-290.5"/>
</g>
<!-- run_woden__main&#45;&gt;run_woden__read_skymodel_thread -->
<g id="edge15" class="edge">
<title>run_woden__main&#45;&gt;run_woden__read_skymodel_thread</title>
<path fill="none" stroke="#000000" d="M363.56,-96C403.02,-96 471.34,-96 532.06,-96"/>
<polygon fill="#000000" stroke="#000000" points="532.12,-99.5 542.12,-96 532.12,-92.5 532.12,-99.5"/>
</g>
<!-- run_woden__main&#45;&gt;run_woden__woden_thread -->
<g id="edge17" class="edge">
<title>run_woden__main&#45;&gt;run_woden__woden_thread</title>
<path fill="none" stroke="#000000" d="M362.53,-91.78C393.53,-87.61 441.85,-80.86 483.56,-74 493.97,-72.29 543.51,-63.1 586.9,-55"/>
<polygon fill="#000000" stroke="#000000" points="587.72,-58.41 596.9,-53.13 586.43,-51.53 587.72,-58.41"/>
</g>
<!-- run_woden__main&#45;&gt;wodenpy__uvfits__wodenpy_uvfits__create_uvfits -->
<g id="edge16" class="edge">
<title>run_woden__main&#45;&gt;wodenpy__uvfits__wodenpy_uvfits__create_uvfits</title>
<path fill="none" stroke="#000000" d="M362.29,-91.49C396.29,-88.52 449.87,-89.46 483.56,-118 514.88,-144.53 480.8,-178.83 511.56,-206 529.5,-221.85 553.69,-229.72 577.15,-233.32"/>
<polygon fill="#000000" stroke="#000000" points="576.77,-236.8 587.14,-234.62 577.67,-229.86 576.77,-236.8"/>
</g>
<!-- run_woden__main&#45;&gt;wodenpy__uvfits__wodenpy_uvfits__make_antenna_table -->
<g id="edge13" class="edge">
<title>run_woden__main&#45;&gt;wodenpy__uvfits__wodenpy_uvfits__make_antenna_table</title>
<path fill="none" stroke="#000000" d="M363.26,-94.44C395.67,-94.28 445.78,-97.87 483.56,-118 499.95,-126.73 495.45,-139.77 511.56,-149 525.49,-156.98 541.25,-162.85 557.12,-167.17"/>
<polygon fill="#000000" stroke="#000000" points="556.44,-170.61 567,-169.66 558.15,-163.82 556.44,-170.61"/>
</g>
<!-- run_woden__main&#45;&gt;wodenpy__uvfits__wodenpy_uvfits__make_baseline_date_arrays -->
<g id="edge14" class="edge">
<title>run_woden__main&#45;&gt;wodenpy__uvfits__wodenpy_uvfits__make_baseline_date_arrays</title>
<path fill="none" stroke="#000000" d="M361.99,-90.87C396.49,-87.18 451.25,-87.32 483.56,-118 530.21,-162.29 465.84,-214.75 511.56,-260 516.81,-265.19 522.72,-269.56 529.06,-273.22"/>
<polygon fill="#000000" stroke="#000000" points="527.48,-276.34 537.98,-277.78 530.67,-270.11 527.48,-276.34"/>
</g>
<!-- wodenpy__uvfits__wodenpy_uvfits__create_uvfits&#45;&gt;wodenpy__uvfits__wodenpy_uvfits__RTS_decode_baseline -->
<g id="edge18" class="edge">
<title>wodenpy__uvfits__wodenpy_uvfits__create_uvfits&#45;&gt;wodenpy__uvfits__wodenpy_uvfits__RTS_decode_baseline</title>
<path fill="none" stroke="#000000" d="M727.6,-233C755.67,-233 788.91,-233 820.65,-233"/>
<polygon fill="#000000" stroke="#000000" points="820.9,-236.5 830.9,-233 820.9,-229.5 820.9,-236.5"/>
</g>
<!-- wodenpy__uvfits__wodenpy_uvfits__make_baseline_date_arrays&#45;&gt;wodenpy__uvfits__wodenpy_uvfits__RTS_encode_baseline -->
<g id="edge19" class="edge">
<title>wodenpy__uvfits__wodenpy_uvfits__make_baseline_date_arrays&#45;&gt;wodenpy__uvfits__wodenpy_uvfits__RTS_encode_baseline</title>
<path fill="none" stroke="#000000" d="M795.45,-287C803.9,-287 812.38,-287 820.74,-287"/>
<polygon fill="#000000" stroke="#000000" points="820.89,-290.5 830.89,-287 820.89,-283.5 820.89,-290.5"/>
</g>
</g>
</svg>
