<?xml version="1.0" encoding="UTF-8" standalone="no"?>
<!DOCTYPE svg PUBLIC "-//W3C//DTD SVG 1.1//EN"
 "http://www.w3.org/Graphics/SVG/1.1/DTD/svg11.dtd">
<!-- Generated by graphviz version 2.43.0 (0)
 -->
<!-- Title: G Pages: 1 -->
<svg width="3116pt" height="536pt"
 viewBox="0.00 0.00 3116.31 536.41" xmlns="http://www.w3.org/2000/svg" xmlns:xlink="http://www.w3.org/1999/xlink">
<g id="graph0" class="graph" transform="scale(1 1) rotate(0) translate(4 532.41)">
<title>G</title>
<polygon fill="white" stroke="transparent" points="-4,4 -4,-532.41 3112.31,-532.41 3112.31,4 -4,4"/>
<g id="clust1" class="cluster">
<title>cluster_G</title>
<path fill="#808080" fill-opacity="0.094118" stroke="black" d="M20,-16.41C20,-16.41 3096.31,-16.41 3096.31,-16.41 3102.31,-16.41 3108.31,-22.41 3108.31,-28.41 3108.31,-28.41 3108.31,-508.41 3108.31,-508.41 3108.31,-514.41 3102.31,-520.41 3096.31,-520.41 3096.31,-520.41 20,-520.41 20,-520.41 14,-520.41 8,-514.41 8,-508.41 8,-508.41 8,-28.41 8,-28.41 8,-22.41 14,-16.41 20,-16.41"/>
</g>
<g id="clust2" class="cluster">
<title>cluster_run_woden</title>
<path fill="#808080" fill-opacity="0.094118" stroke="black" d="M326.38,-288.41C326.38,-288.41 853.53,-288.41 853.53,-288.41 859.53,-288.41 865.53,-294.41 865.53,-300.41 865.53,-300.41 865.53,-405.41 865.53,-405.41 865.53,-411.41 859.53,-417.41 853.53,-417.41 853.53,-417.41 326.38,-417.41 326.38,-417.41 320.38,-417.41 314.38,-411.41 314.38,-405.41 314.38,-405.41 314.38,-300.41 314.38,-300.41 314.38,-294.41 320.38,-288.41 326.38,-288.41"/>
<text text-anchor="middle" x="589.95" y="-402.21" font-family="Times,serif" font-size="14.00">run_woden</text>
</g>
<g id="clust3" class="cluster">
<title>cluster_wodenpy__skymodel__chunk_sky_model</title>
<path fill="#808080" fill-opacity="0.094118" stroke="black" d="M601.55,-24.41C601.55,-24.41 3088.31,-24.41 3088.31,-24.41 3094.31,-24.41 3100.31,-30.41 3100.31,-36.41 3100.31,-36.41 3100.31,-256.41 3100.31,-256.41 3100.31,-262.41 3094.31,-268.41 3088.31,-268.41 3088.31,-268.41 601.55,-268.41 601.55,-268.41 595.55,-268.41 589.55,-262.41 589.55,-256.41 589.55,-256.41 589.55,-36.41 589.55,-36.41 589.55,-30.41 595.55,-24.41 601.55,-24.41"/>
<text text-anchor="middle" x="1844.93" y="-253.21" font-family="Times,serif" font-size="14.00">wodenpy.skymodel.chunk_sky_model</text>
</g>
<g id="clust4" class="cluster">
<title>cluster_wodenpy__skymodel__chunk_sky_model__Components_Map</title>
<path fill="#808080" fill-opacity="0.094118" stroke="black" d="M2694.92,-116.41C2694.92,-116.41 3080.31,-116.41 3080.31,-116.41 3086.31,-116.41 3092.31,-122.41 3092.31,-128.41 3092.31,-128.41 3092.31,-179.41 3092.31,-179.41 3092.31,-185.41 3086.31,-191.41 3080.31,-191.41 3080.31,-191.41 2694.92,-191.41 2694.92,-191.41 2688.92,-191.41 2682.92,-185.41 2682.92,-179.41 2682.92,-179.41 2682.92,-128.41 2682.92,-128.41 2682.92,-122.41 2688.92,-116.41 2694.92,-116.41"/>
<text text-anchor="middle" x="2887.62" y="-176.21" font-family="Times,serif" font-size="14.00">wodenpy.skymodel.chunk_sky_model.Components_Map</text>
</g>
<g id="clust5" class="cluster">
<title>cluster_wodenpy__skymodel__chunk_sky_model__Skymodel_Chunk_Map</title>
<path fill="#808080" fill-opacity="0.094118" stroke="black" d="M1976.95,-98.41C1976.95,-98.41 2395.74,-98.41 2395.74,-98.41 2401.74,-98.41 2407.74,-104.41 2407.74,-110.41 2407.74,-110.41 2407.74,-215.41 2407.74,-215.41 2407.74,-221.41 2401.74,-227.41 2395.74,-227.41 2395.74,-227.41 1976.95,-227.41 1976.95,-227.41 1970.95,-227.41 1964.95,-221.41 1964.95,-215.41 1964.95,-215.41 1964.95,-110.41 1964.95,-110.41 1964.95,-104.41 1970.95,-98.41 1976.95,-98.41"/>
<text text-anchor="middle" x="2186.34" y="-212.21" font-family="Times,serif" font-size="14.00">wodenpy.skymodel.chunk_sky_model.Skymodel_Chunk_Map</text>
</g>
<g id="clust6" class="cluster">
<title>cluster_wodenpy__skymodel__read_skymodel</title>
<path fill="#808080" fill-opacity="0.094118" stroke="black" d="M952.13,-383.41C952.13,-383.41 1249.6,-383.41 1249.6,-383.41 1255.6,-383.41 1261.6,-389.41 1261.6,-395.41 1261.6,-395.41 1261.6,-500.41 1261.6,-500.41 1261.6,-506.41 1255.6,-512.41 1249.6,-512.41 1249.6,-512.41 952.13,-512.41 952.13,-512.41 946.13,-512.41 940.13,-506.41 940.13,-500.41 940.13,-500.41 940.13,-395.41 940.13,-395.41 940.13,-389.41 946.13,-383.41 952.13,-383.41"/>
<text text-anchor="middle" x="1100.86" y="-497.21" font-family="Times,serif" font-size="14.00">wodenpy.skymodel.read_skymodel</text>
</g>
<!-- run_woden -->
<g id="node1" class="node">
<title>run_woden</title>
<ellipse fill="#ffffff" fill-opacity="0.698039" stroke="black" cx="77.74" cy="-351.41" rx="61.99" ry="18"/>
<text text-anchor="middle" x="77.74" y="-347.71" font-family="Times,serif" font-size="14.00" fill="#000000">run_woden</text>
</g>
<!-- run_woden__main -->
<g id="node4" class="node">
<title>run_woden__main</title>
<ellipse fill="#fecccc" fill-opacity="0.698039" stroke="black" cx="356.17" cy="-314.41" rx="33.6" ry="18"/>
<text text-anchor="middle" x="356.17" y="-310.71" font-family="Times,serif" font-size="14.00" fill="#000000">main</text>
</g>
<!-- run_woden&#45;&gt;run_woden__main -->
<g id="edge3" class="edge">
<title>run_woden&#45;&gt;run_woden__main</title>
<path fill="none" stroke="#838b8b" stroke-dasharray="5,2" d="M115.92,-337.22C133.89,-333.51 155.79,-330.14 175.49,-327.41 222.24,-320.92 275.97,-314.47 312.41,-312.07"/>
<polygon fill="#838b8b" stroke="#838b8b" points="312.89,-315.55 322.67,-311.48 312.49,-308.56 312.89,-315.55"/>
</g>
<!-- run_woden&#45;&gt;run_woden__main -->
<g id="edge19" class="edge">
<title>run_woden&#45;&gt;run_woden__main</title>
<path fill="none" stroke="#000000" d="M139.6,-350.49C151.49,-348.85 163.87,-347.02 175.49,-345.41 224.22,-338.65 280.55,-331.93 316.95,-325.67"/>
<polygon fill="#000000" stroke="#000000" points="317.91,-329.05 327.13,-323.83 316.66,-322.16 317.91,-329.05"/>
</g>
<!-- run_woden__read_skymodel_thread -->
<g id="node5" class="node">
<title>run_woden__read_skymodel_thread</title>
<ellipse fill="#fecccc" fill-opacity="0.698039" stroke="black" cx="742.49" cy="-368.41" rx="115.08" ry="18"/>
<text text-anchor="middle" x="742.49" y="-364.71" font-family="Times,serif" font-size="14.00" fill="#000000">read_skymodel_thread</text>
</g>
<!-- run_woden&#45;&gt;run_woden__read_skymodel_thread -->
<g id="edge2" class="edge">
<title>run_woden&#45;&gt;run_woden__read_skymodel_thread</title>
<path fill="none" stroke="#838b8b" stroke-dasharray="5,2" d="M138.6,-354.78C150.8,-355.39 163.56,-355.97 175.49,-356.41 327.56,-361.95 502.72,-365.17 617.41,-366.86"/>
<polygon fill="#838b8b" stroke="#838b8b" points="617.58,-370.36 627.63,-367.01 617.68,-363.36 617.58,-370.36"/>
</g>
<!-- run_woden__woden_thread -->
<g id="node6" class="node">
<title>run_woden__woden_thread</title>
<ellipse fill="#fecccc" fill-opacity="0.698039" stroke="black" cx="742.49" cy="-314.41" rx="76.09" ry="18"/>
<text text-anchor="middle" x="742.49" y="-310.71" font-family="Times,serif" font-size="14.00" fill="#000000">woden_thread</text>
</g>
<!-- run_woden&#45;&gt;run_woden__woden_thread -->
<g id="edge1" class="edge">
<title>run_woden&#45;&gt;run_woden__woden_thread</title>
<path fill="none" stroke="#838b8b" stroke-dasharray="5,2" d="M139.61,-352.19C227.47,-352.84 394.87,-352.29 536.86,-341.41 580.81,-338.04 629.77,-331.67 668.78,-325.97"/>
<polygon fill="#838b8b" stroke="#838b8b" points="669.6,-329.38 678.98,-324.46 668.58,-322.46 669.6,-329.38"/>
</g>
<!-- wodenpy__skymodel__chunk_sky_model__create_skymodel_chunk_map -->
<g id="node10" class="node">
<title>wodenpy__skymodel__chunk_sky_model__create_skymodel_chunk_map</title>
<ellipse fill="#b2ff65" fill-opacity="0.698039" stroke="black" cx="742.49" cy="-159.41" rx="144.87" ry="18"/>
<text text-anchor="middle" x="742.49" y="-155.71" font-family="Times,serif" font-size="14.00" fill="#000000">create_skymodel_chunk_map</text>
</g>
<!-- run_woden&#45;&gt;wodenpy__skymodel__chunk_sky_model__create_skymodel_chunk_map -->
<g id="edge21" class="edge">
<title>run_woden&#45;&gt;wodenpy__skymodel__chunk_sky_model__create_skymodel_chunk_map</title>
<path fill="none" stroke="#000000" d="M98.49,-334.26C117.12,-318.96 146.47,-297.07 175.49,-284.41 321.45,-220.7 503.26,-187.99 620.81,-172.3"/>
<polygon fill="#000000" stroke="#000000" points="621.47,-175.74 630.92,-170.97 620.55,-168.8 621.47,-175.74"/>
</g>
<!-- wodenpy__skymodel__read_skymodel__read_radec_count_components -->
<g id="node19" class="node">
<title>wodenpy__skymodel__read_skymodel__read_radec_count_components</title>
<ellipse fill="#65feff" fill-opacity="0.698039" stroke="black" cx="1100.86" cy="-409.41" rx="152.97" ry="18"/>
<text text-anchor="middle" x="1100.86" y="-405.71" font-family="Times,serif" font-size="14.00" fill="#000000">read_radec_count_components</text>
</g>
<!-- run_woden&#45;&gt;wodenpy__skymodel__read_skymodel__read_radec_count_components -->
<g id="edge18" class="edge">
<title>run_woden&#45;&gt;wodenpy__skymodel__read_skymodel__read_radec_count_components</title>
<path fill="none" stroke="#000000" d="M95.71,-368.92C113.66,-386.09 143.73,-411.12 175.49,-421.41 253.36,-446.62 830.32,-424.02 912.13,-421.41 927.74,-420.91 944.07,-420.18 960.3,-419.32"/>
<polygon fill="#000000" stroke="#000000" points="960.6,-422.81 970.39,-418.77 960.22,-415.82 960.6,-422.81"/>
</g>
<!-- wodenpy__skymodel__read_skymodel__read_skymodel_chunks -->
<g id="node20" class="node">
<title>wodenpy__skymodel__read_skymodel__read_skymodel_chunks</title>
<ellipse fill="#65feff" fill-opacity="0.698039" stroke="black" cx="1100.86" cy="-463.41" rx="116.98" ry="18"/>
<text text-anchor="middle" x="1100.86" y="-459.71" font-family="Times,serif" font-size="14.00" fill="#000000">read_skymodel_chunks</text>
</g>
<!-- run_woden&#45;&gt;wodenpy__skymodel__read_skymodel__read_skymodel_chunks -->
<g id="edge20" class="edge">
<title>run_woden&#45;&gt;wodenpy__skymodel__read_skymodel__read_skymodel_chunks</title>
<path fill="none" stroke="#000000" d="M94.28,-369C111.95,-387.77 142.64,-416.77 175.49,-431.41 475.5,-565.08 584.52,-513.84 912.13,-490.41 945.32,-488.03 981.56,-483.32 1013.28,-478.49"/>
<polygon fill="#000000" stroke="#000000" points="1014.06,-481.92 1023.4,-476.93 1012.99,-475 1014.06,-481.92"/>
</g>
<!-- wodenpy__skymodel__chunk_sky_model -->
<g id="node2" class="node">
<title>wodenpy__skymodel__chunk_sky_model</title>
<ellipse fill="#ffffff" fill-opacity="0.698039" stroke="black" cx="356.17" cy="-122.41" rx="180.87" ry="18"/>
<text text-anchor="middle" x="356.17" y="-118.71" font-family="Times,serif" font-size="14.00" fill="#000000">wodenpy.skymodel.chunk_sky_model</text>
</g>
<!-- wodenpy__skymodel__chunk_sky_model__Components_Map -->
<g id="node7" class="node">
<title>wodenpy__skymodel__chunk_sky_model__Components_Map</title>
<ellipse fill="#b2ff65" fill-opacity="0.698039" stroke="black" cx="2545.33" cy="-161.41" rx="93.68" ry="18"/>
<text text-anchor="middle" x="2545.33" y="-157.71" font-family="Times,serif" font-size="14.00" fill="#000000">Components_Map</text>
</g>
<!-- wodenpy__skymodel__chunk_sky_model&#45;&gt;wodenpy__skymodel__chunk_sky_model__Components_Map -->
<g id="edge10" class="edge">
<title>wodenpy__skymodel__chunk_sky_model&#45;&gt;wodenpy__skymodel__chunk_sky_model__Components_Map</title>
<path fill="none" stroke="#838b8b" stroke-dasharray="5,2" d="M386.2,-140.35C426.42,-164.17 502.15,-205.33 572.86,-223.41 800.23,-281.52 865.18,-256.41 1099.86,-256.41 1099.86,-256.41 1099.86,-256.41 1773.76,-256.41 2055.64,-256.41 2136.13,-313.82 2407.74,-238.41 2446.62,-227.61 2486.27,-203.5 2512.77,-185.11"/>
<polygon fill="#838b8b" stroke="#838b8b" points="2515.09,-187.76 2521.23,-179.12 2511.04,-182.04 2515.09,-187.76"/>
</g>
<!-- wodenpy__skymodel__chunk_sky_model__Skymodel_Chunk_Map -->
<g id="node8" class="node">
<title>wodenpy__skymodel__chunk_sky_model__Skymodel_Chunk_Map</title>
<ellipse fill="#b2ff65" fill-opacity="0.698039" stroke="black" cx="1772.76" cy="-178.41" rx="115.08" ry="18"/>
<text text-anchor="middle" x="1772.76" y="-174.71" font-family="Times,serif" font-size="14.00" fill="#000000">Skymodel_Chunk_Map</text>
</g>
<!-- wodenpy__skymodel__chunk_sky_model&#45;&gt;wodenpy__skymodel__chunk_sky_model__Skymodel_Chunk_Map -->
<g id="edge9" class="edge">
<title>wodenpy__skymodel__chunk_sky_model&#45;&gt;wodenpy__skymodel__chunk_sky_model__Skymodel_Chunk_Map</title>
<path fill="none" stroke="#838b8b" stroke-dasharray="5,2" d="M393.09,-140.2C435.04,-159.96 507.07,-190.72 572.86,-203.41 794.5,-246.15 1366.23,-252.32 1588.57,-213.41 1605.33,-210.47 1608.08,-204.57 1624.57,-200.41 1639.27,-196.69 1654.95,-193.53 1670.41,-190.85"/>
<polygon fill="#838b8b" stroke="#838b8b" points="1671.23,-194.26 1680.51,-189.16 1670.07,-187.36 1671.23,-194.26"/>
</g>
<!-- wodenpy__skymodel__chunk_sky_model__create_shape_basis_maps -->
<g id="node9" class="node">
<title>wodenpy__skymodel__chunk_sky_model__create_shape_basis_maps</title>
<ellipse fill="#b2ff65" fill-opacity="0.698039" stroke="black" cx="1100.86" cy="-156.41" rx="129.18" ry="18"/>
<text text-anchor="middle" x="1100.86" y="-152.71" font-family="Times,serif" font-size="14.00" fill="#000000">create_shape_basis_maps</text>
</g>
<!-- wodenpy__skymodel__chunk_sky_model&#45;&gt;wodenpy__skymodel__chunk_sky_model__create_shape_basis_maps -->
<g id="edge13" class="edge">
<title>wodenpy__skymodel__chunk_sky_model&#45;&gt;wodenpy__skymodel__chunk_sky_model__create_shape_basis_maps</title>
<path fill="none" stroke="#838b8b" stroke-dasharray="5,2" d="M536.09,-120.68C644.94,-120.87 786.71,-123.29 912.13,-132.41 941.44,-134.54 973.19,-138.11 1002.1,-141.86"/>
<polygon fill="#838b8b" stroke="#838b8b" points="1001.82,-145.35 1012.19,-143.19 1002.74,-138.41 1001.82,-145.35"/>
</g>
<!-- wodenpy__skymodel__chunk_sky_model&#45;&gt;wodenpy__skymodel__chunk_sky_model__create_skymodel_chunk_map -->
<g id="edge6" class="edge">
<title>wodenpy__skymodel__chunk_sky_model&#45;&gt;wodenpy__skymodel__chunk_sky_model__create_skymodel_chunk_map</title>
<path fill="none" stroke="#838b8b" stroke-dasharray="5,2" d="M486.75,-134.88C528.82,-138.93 575.39,-143.41 617.08,-147.43"/>
<polygon fill="#838b8b" stroke="#838b8b" points="617,-150.94 627.29,-148.41 617.67,-143.97 617,-150.94"/>
</g>
<!-- wodenpy__skymodel__chunk_sky_model__fill_chunk_component -->
<g id="node11" class="node">
<title>wodenpy__skymodel__chunk_sky_model__fill_chunk_component</title>
<ellipse fill="#b2ff65" fill-opacity="0.698039" stroke="black" cx="1439.09" cy="-116.41" rx="110.48" ry="18"/>
<text text-anchor="middle" x="1439.09" y="-112.71" font-family="Times,serif" font-size="14.00" fill="#000000">fill_chunk_component</text>
</g>
<!-- wodenpy__skymodel__chunk_sky_model&#45;&gt;wodenpy__skymodel__chunk_sky_model__fill_chunk_component -->
<g id="edge7" class="edge">
<title>wodenpy__skymodel__chunk_sky_model&#45;&gt;wodenpy__skymodel__chunk_sky_model__fill_chunk_component</title>
<path fill="none" stroke="#838b8b" stroke-dasharray="5,2" d="M490.9,-110.38C518.02,-108.01 546.35,-105.58 572.86,-103.41 725.52,-90.86 1112.52,-40.21 1261.6,-75.41 1275.14,-78.6 1276.4,-85.01 1289.6,-89.41 1306.48,-95.03 1324.86,-99.58 1342.75,-103.21"/>
<polygon fill="#838b8b" stroke="#838b8b" points="1342.14,-106.66 1352.63,-105.14 1343.48,-99.79 1342.14,-106.66"/>
</g>
<!-- wodenpy__skymodel__chunk_sky_model__fill_chunk_map_polarised_info -->
<g id="node12" class="node">
<title>wodenpy__skymodel__chunk_sky_model__fill_chunk_map_polarised_info</title>
<ellipse fill="#b2ff65" fill-opacity="0.698039" stroke="black" cx="1772.76" cy="-50.41" rx="148.37" ry="18"/>
<text text-anchor="middle" x="1772.76" y="-46.71" font-family="Times,serif" font-size="14.00" fill="#000000">fill_chunk_map_polarised_info</text>
</g>
<!-- wodenpy__skymodel__chunk_sky_model&#45;&gt;wodenpy__skymodel__chunk_sky_model__fill_chunk_map_polarised_info -->
<g id="edge12" class="edge">
<title>wodenpy__skymodel__chunk_sky_model&#45;&gt;wodenpy__skymodel__chunk_sky_model__fill_chunk_map_polarised_info</title>
<path fill="none" stroke="#838b8b" stroke-dasharray="5,2" d="M392.69,-104.63C434.55,-84.73 506.79,-53.69 572.86,-41.41 968.5,32.15 1450.34,-10.53 1662.53,-35.83"/>
<polygon fill="#838b8b" stroke="#838b8b" points="1662.39,-39.34 1672.74,-37.06 1663.23,-32.39 1662.39,-39.34"/>
</g>
<!-- wodenpy__skymodel__chunk_sky_model__increment_flux_type_counters -->
<g id="node13" class="node">
<title>wodenpy__skymodel__chunk_sky_model__increment_flux_type_counters</title>
<ellipse fill="#b2ff65" fill-opacity="0.698039" stroke="black" cx="1439.09" cy="-62.41" rx="149.47" ry="18"/>
<text text-anchor="middle" x="1439.09" y="-58.71" font-family="Times,serif" font-size="14.00" fill="#000000">increment_flux_type_counters</text>
</g>
<!-- wodenpy__skymodel__chunk_sky_model&#45;&gt;wodenpy__skymodel__chunk_sky_model__increment_flux_type_counters -->
<g id="edge8" class="edge">
<title>wodenpy__skymodel__chunk_sky_model&#45;&gt;wodenpy__skymodel__chunk_sky_model__increment_flux_type_counters</title>
<path fill="none" stroke="#838b8b" stroke-dasharray="5,2" d="M411.48,-105.26C454.71,-92.48 517.01,-75.99 572.86,-68.41 827.9,-33.79 1129.12,-42.82 1300.46,-52.58"/>
<polygon fill="#838b8b" stroke="#838b8b" points="1300.36,-56.08 1310.55,-53.17 1300.77,-49.09 1300.36,-56.08"/>
</g>
<!-- wodenpy__skymodel__chunk_sky_model__map_chunk_pointgauss -->
<g id="node14" class="node">
<title>wodenpy__skymodel__chunk_sky_model__map_chunk_pointgauss</title>
<ellipse fill="#b2ff65" fill-opacity="0.698039" stroke="black" cx="1100.86" cy="-102.41" rx="118.08" ry="18"/>
<text text-anchor="middle" x="1100.86" y="-98.71" font-family="Times,serif" font-size="14.00" fill="#000000">map_chunk_pointgauss</text>
</g>
<!-- wodenpy__skymodel__chunk_sky_model&#45;&gt;wodenpy__skymodel__chunk_sky_model__map_chunk_pointgauss -->
<g id="edge11" class="edge">
<title>wodenpy__skymodel__chunk_sky_model&#45;&gt;wodenpy__skymodel__chunk_sky_model__map_chunk_pointgauss</title>
<path fill="none" stroke="#838b8b" stroke-dasharray="5,2" d="M530.83,-117.73C666.66,-114.07 852.29,-109.07 974.07,-105.79"/>
<polygon fill="#838b8b" stroke="#838b8b" points="974.28,-109.29 984.19,-105.52 974.1,-102.29 974.28,-109.29"/>
</g>
<!-- wodenpy__skymodel__chunk_sky_model__map_chunk_shapelets -->
<g id="node15" class="node">
<title>wodenpy__skymodel__chunk_sky_model__map_chunk_shapelets</title>
<ellipse fill="#b2ff65" fill-opacity="0.698039" stroke="black" cx="1439.09" cy="-186.41" rx="111.58" ry="18"/>
<text text-anchor="middle" x="1439.09" y="-182.71" font-family="Times,serif" font-size="14.00" fill="#000000">map_chunk_shapelets</text>
</g>
<!-- wodenpy__skymodel__chunk_sky_model&#45;&gt;wodenpy__skymodel__chunk_sky_model__map_chunk_shapelets -->
<g id="edge14" class="edge">
<title>wodenpy__skymodel__chunk_sky_model&#45;&gt;wodenpy__skymodel__chunk_sky_model__map_chunk_shapelets</title>
<path fill="none" stroke="#838b8b" stroke-dasharray="5,2" d="M402.62,-139.88C445.7,-155.48 512.62,-177.24 572.86,-186.41 844.32,-227.72 1169.26,-210.03 1332.9,-196.54"/>
<polygon fill="#838b8b" stroke="#838b8b" points="1333.29,-200.02 1342.96,-195.7 1332.7,-193.04 1333.29,-200.02"/>
</g>
<!-- wodenpy__skymodel__read_skymodel -->
<g id="node3" class="node">
<title>wodenpy__skymodel__read_skymodel</title>
<ellipse fill="#ffffff" fill-opacity="0.698039" stroke="black" cx="742.49" cy="-463.41" rx="169.77" ry="18"/>
<text text-anchor="middle" x="742.49" y="-459.71" font-family="Times,serif" font-size="14.00" fill="#000000">wodenpy.skymodel.read_skymodel</text>
</g>
<!-- wodenpy__skymodel__read_skymodel&#45;&gt;wodenpy__skymodel__read_skymodel__read_radec_count_components -->
<g id="edge4" class="edge">
<title>wodenpy__skymodel__read_skymodel&#45;&gt;wodenpy__skymodel__read_skymodel__read_radec_count_components</title>
<path fill="none" stroke="#838b8b" stroke-dasharray="5,2" d="M840.87,-448.65C889.07,-441.35 947.28,-432.53 996.3,-425.1"/>
<polygon fill="#838b8b" stroke="#838b8b" points="996.93,-428.54 1006.29,-423.58 995.88,-421.62 996.93,-428.54"/>
</g>
<!-- wodenpy__skymodel__read_skymodel&#45;&gt;wodenpy__skymodel__read_skymodel__read_skymodel_chunks -->
<g id="edge5" class="edge">
<title>wodenpy__skymodel__read_skymodel&#45;&gt;wodenpy__skymodel__read_skymodel__read_skymodel_chunks</title>
<path fill="none" stroke="#838b8b" stroke-dasharray="5,2" d="M912.28,-463.41C932.98,-463.41 953.85,-463.41 973.77,-463.41"/>
<polygon fill="#838b8b" stroke="#838b8b" points="973.78,-466.91 983.78,-463.41 973.78,-459.91 973.78,-466.91"/>
</g>
<!-- run_woden__main&#45;&gt;run_woden__read_skymodel_thread -->
<g id="edge26" class="edge">
<title>run_woden__main&#45;&gt;run_woden__read_skymodel_thread</title>
<path fill="none" stroke="#000000" d="M389.35,-318.02C425.34,-322.13 485.34,-329.23 536.86,-336.41 574.78,-341.69 616.56,-348.12 652.43,-353.82"/>
<polygon fill="#000000" stroke="#000000" points="651.96,-357.29 662.38,-355.41 653.06,-350.37 651.96,-357.29"/>
</g>
<!-- run_woden__main&#45;&gt;run_woden__woden_thread -->
<g id="edge23" class="edge">
<title>run_woden__main&#45;&gt;run_woden__woden_thread</title>
<path fill="none" stroke="#000000" d="M390.27,-314.41C448.8,-314.41 572.27,-314.41 656.07,-314.41"/>
<polygon fill="#000000" stroke="#000000" points="656.08,-317.91 666.08,-314.41 656.08,-310.91 656.08,-317.91"/>
</g>
<!-- run_woden__main&#45;&gt;wodenpy__skymodel__chunk_sky_model__create_skymodel_chunk_map -->
<g id="edge25" class="edge">
<title>run_woden__main&#45;&gt;wodenpy__skymodel__chunk_sky_model__create_skymodel_chunk_map</title>
<path fill="none" stroke="#000000" d="M390.01,-314.78C426.83,-314.2 487.83,-310.25 536.86,-292.41 555.24,-285.71 653.64,-219.43 707.01,-183.04"/>
<polygon fill="#000000" stroke="#000000" points="709.19,-185.79 715.48,-177.26 705.25,-180.01 709.19,-185.79"/>
</g>
<!-- run_woden__main&#45;&gt;wodenpy__skymodel__read_skymodel__read_radec_count_components -->
<g id="edge24" class="edge">
<title>run_woden__main&#45;&gt;wodenpy__skymodel__read_skymodel__read_radec_count_components</title>
<path fill="none" stroke="#000000" d="M389.33,-310.63C425.29,-306.36 485.28,-299.14 536.86,-292.41 552.87,-290.31 556.74,-288.52 572.86,-287.41 610.46,-284.81 882.09,-264.63 912.13,-287.41 948.9,-315.3 905.35,-357.07 940.13,-387.41 944.18,-390.94 948.52,-394.06 953.08,-396.83"/>
<polygon fill="#000000" stroke="#000000" points="951.65,-400.03 962.12,-401.7 954.98,-393.87 951.65,-400.03"/>
</g>
<!-- run_woden__read_skymodel_thread&#45;&gt;wodenpy__skymodel__read_skymodel__read_skymodel_chunks -->
<g id="edge22" class="edge">
<title>run_woden__read_skymodel_thread&#45;&gt;wodenpy__skymodel__read_skymodel__read_skymodel_chunks</title>
<path fill="none" stroke="#000000" d="M857.73,-369.3C876.96,-373.27 895.92,-379.86 912.13,-390.41 932.19,-403.46 920.32,-422.98 940.13,-436.41 952.14,-444.55 965.8,-450.5 979.95,-454.83"/>
<polygon fill="#000000" stroke="#000000" points="979.24,-458.26 989.81,-457.56 981.11,-451.52 979.24,-458.26"/>
</g>
<!-- wodenpy__skymodel__chunk_sky_model__Components_Map____init__ -->
<g id="node16" class="node">
<title>wodenpy__skymodel__chunk_sky_model__Components_Map____init__</title>
<ellipse fill="#99ff32" fill-opacity="0.698039" stroke="black" cx="2887.12" cy="-142.41" rx="44.39" ry="18"/>
<text text-anchor="middle" x="2887.12" y="-138.71" font-family="Times,serif" font-size="14.00" fill="#000000">__init__</text>
</g>
<!-- wodenpy__skymodel__chunk_sky_model__Components_Map&#45;&gt;wodenpy__skymodel__chunk_sky_model__Components_Map____init__ -->
<g id="edge15" class="edge">
<title>wodenpy__skymodel__chunk_sky_model__Components_Map&#45;&gt;wodenpy__skymodel__chunk_sky_model__Components_Map____init__</title>
<path fill="none" stroke="#838b8b" stroke-dasharray="5,2" d="M2635.6,-156.41C2698.28,-152.91 2780.01,-148.34 2832.78,-145.39"/>
<polygon fill="#838b8b" stroke="#838b8b" points="2833.14,-148.87 2842.93,-144.82 2832.75,-141.88 2833.14,-148.87"/>
</g>
<!-- wodenpy__skymodel__chunk_sky_model__Skymodel_Chunk_Map____init__ -->
<g id="node17" class="node">
<title>wodenpy__skymodel__chunk_sky_model__Skymodel_Chunk_Map____init__</title>
<ellipse fill="#99ff32" fill-opacity="0.698039" stroke="black" cx="2185.84" cy="-124.41" rx="44.39" ry="18"/>
<text text-anchor="middle" x="2185.84" y="-120.71" font-family="Times,serif" font-size="14.00" fill="#000000">__init__</text>
</g>
<!-- wodenpy__skymodel__chunk_sky_model__Skymodel_Chunk_Map&#45;&gt;wodenpy__skymodel__chunk_sky_model__Skymodel_Chunk_Map____init__ -->
<g id="edge17" class="edge">
<title>wodenpy__skymodel__chunk_sky_model__Skymodel_Chunk_Map&#45;&gt;wodenpy__skymodel__chunk_sky_model__Skymodel_Chunk_Map____init__</title>
<path fill="none" stroke="#838b8b" stroke-dasharray="5,2" d="M1857.95,-166.18C1891.25,-161.43 1929.89,-156.03 1964.95,-151.41 2022.43,-143.82 2088.47,-135.8 2133.05,-130.5"/>
<polygon fill="#838b8b" stroke="#838b8b" points="2133.55,-133.96 2143.07,-129.31 2132.72,-127.01 2133.55,-133.96"/>
</g>
<!-- wodenpy__skymodel__chunk_sky_model__Skymodel_Chunk_Map__print_info -->
<g id="node18" class="node">
<title>wodenpy__skymodel__chunk_sky_model__Skymodel_Chunk_Map__print_info</title>
<ellipse fill="#99ff32" fill-opacity="0.698039" stroke="black" cx="2185.84" cy="-178.41" rx="55.79" ry="18"/>
<text text-anchor="middle" x="2185.84" y="-174.71" font-family="Times,serif" font-size="14.00" fill="#000000">print_info</text>
</g>
<!-- wodenpy__skymodel__chunk_sky_model__Skymodel_Chunk_Map&#45;&gt;wodenpy__skymodel__chunk_sky_model__Skymodel_Chunk_Map__print_info -->
<g id="edge16" class="edge">
<title>wodenpy__skymodel__chunk_sky_model__Skymodel_Chunk_Map&#45;&gt;wodenpy__skymodel__chunk_sky_model__Skymodel_Chunk_Map__print_info</title>
<path fill="none" stroke="#838b8b" stroke-dasharray="5,2" d="M1888,-178.41C1962.72,-178.41 2057.64,-178.41 2119.76,-178.41"/>
<polygon fill="#838b8b" stroke="#838b8b" points="2119.82,-181.91 2129.82,-178.41 2119.82,-174.91 2119.82,-181.91"/>
</g>
<!-- wodenpy__skymodel__chunk_sky_model__create_skymodel_chunk_map&#45;&gt;wodenpy__skymodel__chunk_sky_model__create_shape_basis_maps -->
<g id="edge39" class="edge">
<title>wodenpy__skymodel__chunk_sky_model__create_skymodel_chunk_map&#45;&gt;wodenpy__skymodel__chunk_sky_model__create_shape_basis_maps</title>
<path fill="none" stroke="#000000" d="M887.16,-158.2C911.71,-157.99 937.16,-157.77 961.57,-157.57"/>
<polygon fill="#000000" stroke="#000000" points="961.62,-161.07 971.59,-157.49 961.56,-154.07 961.62,-161.07"/>
</g>
<!-- wodenpy__skymodel__chunk_sky_model__create_skymodel_chunk_map&#45;&gt;wodenpy__skymodel__chunk_sky_model__map_chunk_pointgauss -->
<g id="edge40" class="edge">
<title>wodenpy__skymodel__chunk_sky_model__create_skymodel_chunk_map&#45;&gt;wodenpy__skymodel__chunk_sky_model__map_chunk_pointgauss</title>
<path fill="none" stroke="#000000" d="M852.3,-147.63C872.28,-144.78 892.9,-141.38 912.13,-137.41 924.8,-134.78 927.5,-132.27 940.13,-129.41 961.08,-124.66 983.76,-120.34 1005.26,-116.61"/>
<polygon fill="#000000" stroke="#000000" points="1006.11,-120.02 1015.38,-114.89 1004.93,-113.12 1006.11,-120.02"/>
</g>
<!-- wodenpy__skymodel__chunk_sky_model__create_skymodel_chunk_map&#45;&gt;wodenpy__skymodel__chunk_sky_model__map_chunk_shapelets -->
<g id="edge41" class="edge">
<title>wodenpy__skymodel__chunk_sky_model__create_skymodel_chunk_map&#45;&gt;wodenpy__skymodel__chunk_sky_model__map_chunk_shapelets</title>
<path fill="none" stroke="#000000" d="M837.3,-173.09C869.79,-177.24 906.49,-181.26 940.13,-183.41 1069.21,-191.64 1217.49,-191.28 1318.44,-189.55"/>
<polygon fill="#000000" stroke="#000000" points="1318.74,-193.05 1328.68,-189.37 1318.61,-186.05 1318.74,-193.05"/>
</g>
<!-- wodenpy__skymodel__chunk_sky_model__fill_chunk_component&#45;&gt;wodenpy__skymodel__chunk_sky_model__Components_Map -->
<g id="edge32" class="edge">
<title>wodenpy__skymodel__chunk_sky_model__fill_chunk_component&#45;&gt;wodenpy__skymodel__chunk_sky_model__Components_Map</title>
<path fill="none" stroke="#000000" d="M1537.22,-108.09C1748.63,-91 2244.56,-56.54 2407.74,-94.41 2444.61,-102.96 2483,-122.93 2509.66,-138.86"/>
<polygon fill="#000000" stroke="#000000" points="2507.87,-141.87 2518.23,-144.08 2511.51,-135.89 2507.87,-141.87"/>
</g>
<!-- wodenpy__skymodel__chunk_sky_model__fill_chunk_component&#45;&gt;wodenpy__skymodel__chunk_sky_model__Skymodel_Chunk_Map -->
<g id="edge29" class="edge">
<title>wodenpy__skymodel__chunk_sky_model__fill_chunk_component&#45;&gt;wodenpy__skymodel__chunk_sky_model__Skymodel_Chunk_Map</title>
<path fill="none" stroke="#000000" d="M1512.46,-129.93C1564.23,-139.61 1634.04,-152.66 1688.18,-162.78"/>
<polygon fill="#000000" stroke="#000000" points="1687.63,-166.24 1698.1,-164.64 1688.92,-159.36 1687.63,-166.24"/>
</g>
<!-- wodenpy__skymodel__chunk_sky_model__fill_chunk_component&#45;&gt;wodenpy__skymodel__chunk_sky_model__fill_chunk_map_polarised_info -->
<g id="edge30" class="edge">
<title>wodenpy__skymodel__chunk_sky_model__fill_chunk_component&#45;&gt;wodenpy__skymodel__chunk_sky_model__fill_chunk_map_polarised_info</title>
<path fill="none" stroke="#000000" d="M1514.95,-103.24C1538.53,-98.98 1564.67,-94.12 1588.57,-89.41 1621.82,-82.84 1658.36,-75.16 1690,-68.36"/>
<polygon fill="#000000" stroke="#000000" points="1691.05,-71.71 1700.09,-66.18 1689.57,-64.87 1691.05,-71.71"/>
</g>
<!-- wodenpy__skymodel__chunk_sky_model__fill_chunk_component&#45;&gt;wodenpy__skymodel__chunk_sky_model__Skymodel_Chunk_Map____init__ -->
<g id="edge31" class="edge">
<title>wodenpy__skymodel__chunk_sky_model__fill_chunk_component&#45;&gt;wodenpy__skymodel__chunk_sky_model__Skymodel_Chunk_Map____init__</title>
<path fill="none" stroke="#000000" d="M1549.58,-117.58C1711.84,-119.32 2010.01,-122.53 2131.35,-123.83"/>
<polygon fill="#000000" stroke="#000000" points="2131.47,-127.33 2141.5,-123.94 2131.54,-120.33 2131.47,-127.33"/>
</g>
<!-- wodenpy__skymodel__chunk_sky_model__map_chunk_pointgauss&#45;&gt;wodenpy__skymodel__chunk_sky_model__fill_chunk_component -->
<g id="edge33" class="edge">
<title>wodenpy__skymodel__chunk_sky_model__map_chunk_pointgauss&#45;&gt;wodenpy__skymodel__chunk_sky_model__fill_chunk_component</title>
<path fill="none" stroke="#000000" d="M1215.22,-107.13C1249.49,-108.55 1287.17,-110.12 1321.64,-111.56"/>
<polygon fill="#000000" stroke="#000000" points="1321.61,-115.06 1331.74,-111.98 1321.9,-108.06 1321.61,-115.06"/>
</g>
<!-- wodenpy__skymodel__chunk_sky_model__map_chunk_pointgauss&#45;&gt;wodenpy__skymodel__chunk_sky_model__increment_flux_type_counters -->
<g id="edge34" class="edge">
<title>wodenpy__skymodel__chunk_sky_model__map_chunk_pointgauss&#45;&gt;wodenpy__skymodel__chunk_sky_model__increment_flux_type_counters</title>
<path fill="none" stroke="#000000" d="M1194.63,-91.37C1233.95,-86.69 1280.21,-81.19 1321.79,-76.24"/>
<polygon fill="#000000" stroke="#000000" points="1322.46,-79.69 1331.97,-75.03 1321.63,-72.74 1322.46,-79.69"/>
</g>
<!-- wodenpy__skymodel__chunk_sky_model__map_chunk_shapelets&#45;&gt;wodenpy__skymodel__chunk_sky_model__Components_Map -->
<g id="edge38" class="edge">
<title>wodenpy__skymodel__chunk_sky_model__map_chunk_shapelets&#45;&gt;wodenpy__skymodel__chunk_sky_model__Components_Map</title>
<path fill="none" stroke="#000000" d="M1532.47,-196.4C1561.9,-199.46 1594.59,-202.72 1624.57,-205.41 1775.68,-218.96 1813.34,-225.62 1964.95,-231.41 2014.11,-233.28 2359.91,-242.95 2407.74,-231.41 2445.21,-222.36 2483.94,-201.19 2510.55,-184.48"/>
<polygon fill="#000000" stroke="#000000" points="2512.56,-187.35 2519.09,-179.01 2508.78,-181.46 2512.56,-187.35"/>
</g>
<!-- wodenpy__skymodel__chunk_sky_model__map_chunk_shapelets&#45;&gt;wodenpy__skymodel__chunk_sky_model__Skymodel_Chunk_Map -->
<g id="edge35" class="edge">
<title>wodenpy__skymodel__chunk_sky_model__map_chunk_shapelets&#45;&gt;wodenpy__skymodel__chunk_sky_model__Skymodel_Chunk_Map</title>
<path fill="none" stroke="#000000" d="M1550.07,-183.75C1581.63,-182.99 1616.25,-182.16 1648.56,-181.38"/>
<polygon fill="#000000" stroke="#000000" points="1649.04,-184.87 1658.96,-181.13 1648.88,-177.87 1649.04,-184.87"/>
</g>
<!-- wodenpy__skymodel__chunk_sky_model__map_chunk_shapelets&#45;&gt;wodenpy__skymodel__chunk_sky_model__fill_chunk_map_polarised_info -->
<g id="edge36" class="edge">
<title>wodenpy__skymodel__chunk_sky_model__map_chunk_shapelets&#45;&gt;wodenpy__skymodel__chunk_sky_model__fill_chunk_map_polarised_info</title>
<path fill="none" stroke="#000000" d="M1501.64,-171.37C1528.7,-164.05 1560.61,-154.44 1588.57,-143.41 1639.96,-123.13 1696.22,-93.35 1732.64,-72.98"/>
<polygon fill="#000000" stroke="#000000" points="1734.46,-75.98 1741.46,-68.02 1731.03,-69.88 1734.46,-75.98"/>
</g>
<!-- wodenpy__skymodel__chunk_sky_model__map_chunk_shapelets&#45;&gt;wodenpy__skymodel__chunk_sky_model__Skymodel_Chunk_Map____init__ -->
<g id="edge37" class="edge">
<title>wodenpy__skymodel__chunk_sky_model__map_chunk_shapelets&#45;&gt;wodenpy__skymodel__chunk_sky_model__Skymodel_Chunk_Map____init__</title>
<path fill="none" stroke="#000000" d="M1505.06,-171.79C1540.25,-164.45 1584.59,-156.14 1624.57,-151.41 1809.74,-129.49 2031.34,-125.25 2131.29,-124.51"/>
<polygon fill="#000000" stroke="#000000" points="2131.46,-128.01 2141.44,-124.44 2131.42,-121.01 2131.46,-128.01"/>
</g>
<!-- wodenpy__skymodel__chunk_sky_model__Skymodel_Chunk_Map____init__&#45;&gt;wodenpy__skymodel__chunk_sky_model__Components_Map -->
<g id="edge27" class="edge">
<title>wodenpy__skymodel__chunk_sky_model__Skymodel_Chunk_Map____init__&#45;&gt;wodenpy__skymodel__chunk_sky_model__Components_Map</title>
<path fill="none" stroke="#000000" d="M2228.9,-128.76C2283.55,-134.41 2380.47,-144.45 2452.5,-151.9"/>
<polygon fill="#000000" stroke="#000000" points="2452.19,-155.39 2462.49,-152.94 2452.91,-148.42 2452.19,-155.39"/>
</g>
<!-- wodenpy__skymodel__chunk_sky_model__Skymodel_Chunk_Map____init__&#45;&gt;wodenpy__skymodel__chunk_sky_model__Components_Map____init__ -->
<g id="edge28" class="edge">
<title>wodenpy__skymodel__chunk_sky_model__Skymodel_Chunk_Map____init__&#45;&gt;wodenpy__skymodel__chunk_sky_model__Components_Map____init__</title>
<path fill="none" stroke="#000000" d="M2230.18,-124.29C2310.71,-124.2 2488.88,-124.63 2638.92,-129.41 2705.89,-131.54 2782.97,-135.89 2833.01,-138.97"/>
<polygon fill="#000000" stroke="#000000" points="2833.07,-142.48 2843.27,-139.61 2833.5,-135.5 2833.07,-142.48"/>
</g>
</g>
</svg>
