<?xml version="1.0" encoding="UTF-8" standalone="no"?>
<!DOCTYPE svg PUBLIC "-//W3C//DTD SVG 1.1//EN"
 "http://www.w3.org/Graphics/SVG/1.1/DTD/svg11.dtd">
<!-- Generated by graphviz version 2.43.0 (0)
 -->
<!-- Title: G Pages: 1 -->
<svg width="1787pt" height="568pt"
 viewBox="0.00 0.00 1787.44 568.00" xmlns="http://www.w3.org/2000/svg" xmlns:xlink="http://www.w3.org/1999/xlink">
<g id="graph0" class="graph" transform="scale(1 1) rotate(0) translate(4 564)">
<title>G</title>
<polygon fill="white" stroke="transparent" points="-4,4 -4,-564 1783.44,-564 1783.44,4 -4,4"/>
<g id="clust1" class="cluster">
<title>cluster_G</title>
<path fill="#808080" fill-opacity="0.094118" stroke="black" d="M20,-8C20,-8 1767.44,-8 1767.44,-8 1773.44,-8 1779.44,-14 1779.44,-20 1779.44,-20 1779.44,-540 1779.44,-540 1779.44,-546 1773.44,-552 1767.44,-552 1767.44,-552 20,-552 20,-552 14,-552 8,-546 8,-540 8,-540 8,-20 8,-20 8,-14 14,-8 20,-8"/>
</g>
<g id="clust2" class="cluster">
<title>cluster_run_woden</title>
<path fill="#808080" fill-opacity="0.094118" stroke="black" d="M320.53,-415C320.53,-415 847.03,-415 847.03,-415 853.03,-415 859.03,-421 859.03,-427 859.03,-427 859.03,-532 859.03,-532 859.03,-538 853.03,-544 847.03,-544 847.03,-544 320.53,-544 320.53,-544 314.53,-544 308.53,-538 308.53,-532 308.53,-532 308.53,-427 308.53,-427 308.53,-421 314.53,-415 320.53,-415"/>
<text text-anchor="middle" x="583.78" y="-528.8" font-family="Times,serif" font-size="14.00">run_woden</text>
</g>
<g id="clust3" class="cluster">
<title>cluster_wodenpy__wodenpy_setup__git_helper</title>
<path fill="#808080" fill-opacity="0.094118" stroke="black" d="M1008.02,-329C1008.02,-329 1644.08,-329 1644.08,-329 1650.08,-329 1656.08,-335 1656.08,-341 1656.08,-341 1656.08,-446 1656.08,-446 1656.08,-452 1650.08,-458 1644.08,-458 1644.08,-458 1008.02,-458 1008.02,-458 1002.02,-458 996.02,-452 996.02,-446 996.02,-446 996.02,-341 996.02,-341 996.02,-335 1002.02,-329 1008.02,-329"/>
<text text-anchor="middle" x="1326.05" y="-442.8" font-family="Times,serif" font-size="14.00">wodenpy.wodenpy_setup.git_helper</text>
</g>
<g id="clust4" class="cluster">
<title>cluster_wodenpy__wodenpy_setup__run_setup</title>
<path fill="#808080" fill-opacity="0.094118" stroke="black" d="M649.65,-16C649.65,-16 1759.44,-16 1759.44,-16 1765.44,-16 1771.44,-22 1771.44,-28 1771.44,-28 1771.44,-309 1771.44,-309 1771.44,-315 1765.44,-321 1759.44,-321 1759.44,-321 649.65,-321 649.65,-321 643.65,-321 637.65,-315 637.65,-309 637.65,-309 637.65,-28 637.65,-28 637.65,-22 643.65,-16 649.65,-16"/>
<text text-anchor="middle" x="1204.54" y="-305.8" font-family="Times,serif" font-size="14.00">wodenpy.wodenpy_setup.run_setup</text>
</g>
<g id="clust5" class="cluster">
<title>cluster_wodenpy__wodenpy_setup__run_setup__get_parser</title>
<path fill="#808080" fill-opacity="0.094118" stroke="black" d="M1003.47,-176C1003.47,-176 1751.44,-176 1751.44,-176 1757.44,-176 1763.44,-182 1763.44,-188 1763.44,-188 1763.44,-278 1763.44,-278 1763.44,-284 1757.44,-290 1751.44,-290 1751.44,-290 1003.47,-290 1003.47,-290 997.47,-290 991.47,-284 991.47,-278 991.47,-278 991.47,-188 991.47,-188 991.47,-182 997.47,-176 1003.47,-176"/>
<text text-anchor="middle" x="1377.45" y="-274.8" font-family="Times,serif" font-size="14.00">wodenpy.wodenpy_setup.run_setup.get_parser</text>
</g>
<g id="clust6" class="cluster">
<title>cluster_wodenpy__wodenpy_setup__run_setup__get_parser__SmartFormatter</title>
<path fill="#808080" fill-opacity="0.094118" stroke="black" d="M1297.95,-184C1297.95,-184 1743.44,-184 1743.44,-184 1749.44,-184 1755.44,-190 1755.44,-196 1755.44,-196 1755.44,-247 1755.44,-247 1755.44,-253 1749.44,-259 1743.44,-259 1743.44,-259 1297.95,-259 1297.95,-259 1291.95,-259 1285.95,-253 1285.95,-247 1285.95,-247 1285.95,-196 1285.95,-196 1285.95,-190 1291.95,-184 1297.95,-184"/>
<text text-anchor="middle" x="1520.69" y="-243.8" font-family="Times,serif" font-size="14.00">wodenpy.wodenpy_setup.run_setup.get_parser.SmartFormatter</text>
</g>
<!-- run_woden -->
<g id="node1" class="node">
<title>run_woden</title>
<ellipse fill="#ffffff" fill-opacity="0.698039" stroke="black" cx="77.74" cy="-441" rx="61.99" ry="18"/>
<text text-anchor="middle" x="77.74" y="-437.3" font-family="Times,serif" font-size="14.00" fill="#000000">run_woden</text>
</g>
<!-- run_woden__main -->
<g id="node4" class="node">
<title>run_woden__main</title>
<ellipse fill="#fecccc" fill-opacity="0.698039" stroke="black" cx="350.32" cy="-441" rx="33.6" ry="18"/>
<text text-anchor="middle" x="350.32" y="-437.3" font-family="Times,serif" font-size="14.00" fill="#000000">main</text>
</g>
<!-- run_woden&#45;&gt;run_woden__main -->
<g id="edge2" class="edge">
<title>run_woden&#45;&gt;run_woden__main</title>
<path fill="none" stroke="#838b8b" stroke-dasharray="5,2" d="M136.46,-435.35C187.72,-433.71 261.42,-433.9 307.28,-435.95"/>
<polygon fill="#838b8b" stroke="#838b8b" points="307.31,-439.45 317.47,-436.46 307.66,-432.46 307.31,-439.45"/>
</g>
<!-- run_woden&#45;&gt;run_woden__main -->
<g id="edge16" class="edge">
<title>run_woden&#45;&gt;run_woden__main</title>
<path fill="none" stroke="#000000" d="M136.46,-446.65C187.72,-448.29 261.42,-448.1 307.28,-446.05"/>
<polygon fill="#000000" stroke="#000000" points="307.66,-449.54 317.47,-445.54 307.31,-442.55 307.66,-449.54"/>
</g>
<!-- run_woden__read_skymodel_thread -->
<g id="node5" class="node">
<title>run_woden__read_skymodel_thread</title>
<ellipse fill="#fecccc" fill-opacity="0.698039" stroke="black" cx="735.99" cy="-441" rx="115.08" ry="18"/>
<text text-anchor="middle" x="735.99" y="-437.3" font-family="Times,serif" font-size="14.00" fill="#000000">read_skymodel_thread</text>
</g>
<!-- run_woden&#45;&gt;run_woden__read_skymodel_thread -->
<g id="edge3" class="edge">
<title>run_woden&#45;&gt;run_woden__read_skymodel_thread</title>
<path fill="none" stroke="#838b8b" stroke-dasharray="5,2" d="M118.24,-454.65C135.58,-459.95 156.31,-465.37 175.49,-468 340.4,-490.58 534.9,-470.9 645.7,-455.37"/>
<polygon fill="#838b8b" stroke="#838b8b" points="646.42,-458.8 655.83,-453.93 645.44,-451.87 646.42,-458.8"/>
</g>
<!-- run_woden__woden_thread -->
<g id="node6" class="node">
<title>run_woden__woden_thread</title>
<ellipse fill="#fecccc" fill-opacity="0.698039" stroke="black" cx="735.99" cy="-495" rx="76.09" ry="18"/>
<text text-anchor="middle" x="735.99" y="-491.3" font-family="Times,serif" font-size="14.00" fill="#000000">woden_thread</text>
</g>
<!-- run_woden&#45;&gt;run_woden__woden_thread -->
<g id="edge1" class="edge">
<title>run_woden&#45;&gt;run_woden__woden_thread</title>
<path fill="none" stroke="#838b8b" stroke-dasharray="5,2" d="M110.63,-456.3C129.11,-464.37 153.1,-473.51 175.49,-478 342.5,-511.48 543.1,-507.08 653,-500.98"/>
<polygon fill="#838b8b" stroke="#838b8b" points="653.24,-504.47 663.03,-500.41 652.84,-497.48 653.24,-504.47"/>
</g>
<!-- wodenpy__wodenpy_setup__run_setup__check_args -->
<g id="node10" class="node">
<title>wodenpy__wodenpy_setup__run_setup__check_args</title>
<ellipse fill="#65feff" fill-opacity="0.698039" stroke="black" cx="735.99" cy="-150" rx="61.99" ry="18"/>
<text text-anchor="middle" x="735.99" y="-146.3" font-family="Times,serif" font-size="14.00" fill="#000000">check_args</text>
</g>
<!-- run_woden&#45;&gt;wodenpy__wodenpy_setup__run_setup__check_args -->
<g id="edge18" class="edge">
<title>run_woden&#45;&gt;wodenpy__wodenpy_setup__run_setup__check_args</title>
<path fill="none" stroke="#000000" d="M81.27,-422.77C88.07,-381.2 110.84,-279.28 175.49,-231 185.35,-223.63 523.58,-178.04 669.29,-158.68"/>
<polygon fill="#000000" stroke="#000000" points="669.99,-162.12 679.44,-157.33 669.07,-155.18 669.99,-162.12"/>
</g>
<!-- wodenpy__wodenpy_setup__run_setup__get_code_version -->
<g id="node12" class="node">
<title>wodenpy__wodenpy_setup__run_setup__get_code_version</title>
<ellipse fill="#65feff" fill-opacity="0.698039" stroke="black" cx="735.99" cy="-258" rx="90.18" ry="18"/>
<text text-anchor="middle" x="735.99" y="-254.3" font-family="Times,serif" font-size="14.00" fill="#000000">get_code_version</text>
</g>
<!-- run_woden&#45;&gt;wodenpy__wodenpy_setup__run_setup__get_code_version -->
<g id="edge15" class="edge">
<title>run_woden&#45;&gt;wodenpy__wodenpy_setup__run_setup__get_code_version</title>
<path fill="none" stroke="#000000" d="M120.03,-427.66C137.13,-422.27 157.2,-416.13 175.49,-411 329.78,-367.7 370.86,-366.28 525.16,-323 577.34,-308.36 636.25,-289.95 678.34,-276.46"/>
<polygon fill="#000000" stroke="#000000" points="679.67,-279.7 688.12,-273.31 677.53,-273.04 679.67,-279.7"/>
</g>
<!-- wodenpy__wodenpy_setup__run_setup__get_parser -->
<g id="node13" class="node">
<title>wodenpy__wodenpy_setup__run_setup__get_parser</title>
<ellipse fill="#65feff" fill-opacity="0.698039" stroke="black" cx="735.99" cy="-204" rx="60.39" ry="18"/>
<text text-anchor="middle" x="735.99" y="-200.3" font-family="Times,serif" font-size="14.00" fill="#000000">get_parser</text>
</g>
<!-- run_woden&#45;&gt;wodenpy__wodenpy_setup__run_setup__get_parser -->
<g id="edge17" class="edge">
<title>run_woden&#45;&gt;wodenpy__wodenpy_setup__run_setup__get_parser</title>
<path fill="none" stroke="#000000" d="M88.32,-423.1C103.31,-396.89 134.84,-348.43 175.49,-323 257.76,-271.52 540.56,-229.28 669.72,-212.18"/>
<polygon fill="#000000" stroke="#000000" points="670.41,-215.62 679.87,-210.85 669.5,-208.68 670.41,-215.62"/>
</g>
<!-- wodenpy__wodenpy_setup__git_helper -->
<g id="node2" class="node">
<title>wodenpy__wodenpy_setup__git_helper</title>
<ellipse fill="#ffffff" fill-opacity="0.698039" stroke="black" cx="735.99" cy="-387" rx="174.67" ry="18"/>
<text text-anchor="middle" x="735.99" y="-383.3" font-family="Times,serif" font-size="14.00" fill="#000000">wodenpy.wodenpy_setup.git_helper</text>
</g>
<!-- wodenpy__wodenpy_setup__git_helper__get_commandline_output -->
<g id="node7" class="node">
<title>wodenpy__wodenpy_setup__git_helper__get_commandline_output</title>
<ellipse fill="#b2ff65" fill-opacity="0.698039" stroke="black" cx="1520.69" cy="-409" rx="127.28" ry="18"/>
<text text-anchor="middle" x="1520.69" y="-405.3" font-family="Times,serif" font-size="14.00" fill="#000000">get_commandline_output</text>
</g>
<!-- wodenpy__wodenpy_setup__git_helper&#45;&gt;wodenpy__wodenpy_setup__git_helper__get_commandline_output -->
<g id="edge4" class="edge">
<title>wodenpy__wodenpy_setup__git_helper&#45;&gt;wodenpy__wodenpy_setup__git_helper__get_commandline_output</title>
<path fill="none" stroke="#838b8b" stroke-dasharray="5,2" d="M869.65,-398.67C883.8,-401.87 897.77,-405.9 910.83,-411 928.97,-418.08 928.24,-430.18 946.83,-436 1065.36,-473.12 1102.22,-441.7 1226.3,-436 1287.63,-433.18 1355.95,-427.07 1411.22,-421.38"/>
<polygon fill="#838b8b" stroke="#838b8b" points="1411.8,-424.83 1421.38,-420.32 1411.07,-417.87 1411.8,-424.83"/>
</g>
<!-- wodenpy__wodenpy_setup__git_helper__make_gitdict -->
<g id="node8" class="node">
<title>wodenpy__wodenpy_setup__git_helper__make_gitdict</title>
<ellipse fill="#b2ff65" fill-opacity="0.698039" stroke="black" cx="1086.56" cy="-409" rx="70.39" ry="18"/>
<text text-anchor="middle" x="1086.56" y="-405.3" font-family="Times,serif" font-size="14.00" fill="#000000">make_gitdict</text>
</g>
<!-- wodenpy__wodenpy_setup__git_helper&#45;&gt;wodenpy__wodenpy_setup__git_helper__make_gitdict -->
<g id="edge6" class="edge">
<title>wodenpy__wodenpy_setup__git_helper&#45;&gt;wodenpy__wodenpy_setup__git_helper__make_gitdict</title>
<path fill="none" stroke="#838b8b" stroke-dasharray="5,2" d="M885.32,-396.36C927.67,-399.03 972.1,-401.84 1008.33,-404.13"/>
<polygon fill="#838b8b" stroke="#838b8b" points="1008.12,-407.62 1018.32,-404.76 1008.56,-400.63 1008.12,-407.62"/>
</g>
<!-- wodenpy__wodenpy_setup__git_helper__retrieve_gitdict -->
<g id="node9" class="node">
<title>wodenpy__wodenpy_setup__git_helper__retrieve_gitdict</title>
<ellipse fill="#b2ff65" fill-opacity="0.698039" stroke="black" cx="1086.56" cy="-355" rx="82.59" ry="18"/>
<text text-anchor="middle" x="1086.56" y="-351.3" font-family="Times,serif" font-size="14.00" fill="#000000">retrieve_gitdict</text>
</g>
<!-- wodenpy__wodenpy_setup__git_helper&#45;&gt;wodenpy__wodenpy_setup__git_helper__retrieve_gitdict -->
<g id="edge5" class="edge">
<title>wodenpy__wodenpy_setup__git_helper&#45;&gt;wodenpy__wodenpy_setup__git_helper__retrieve_gitdict</title>
<path fill="none" stroke="#838b8b" stroke-dasharray="5,2" d="M867.28,-375.04C911.76,-370.96 960.33,-366.5 1000.33,-362.82"/>
<polygon fill="#838b8b" stroke="#838b8b" points="1000.68,-366.31 1010.31,-361.91 1000.04,-359.34 1000.68,-366.31"/>
</g>
<!-- wodenpy__wodenpy_setup__run_setup -->
<g id="node3" class="node">
<title>wodenpy__wodenpy_setup__run_setup</title>
<ellipse fill="#ffffff" fill-opacity="0.698039" stroke="black" cx="350.32" cy="-150" rx="174.67" ry="18"/>
<text text-anchor="middle" x="350.32" y="-146.3" font-family="Times,serif" font-size="14.00" fill="#000000">wodenpy.wodenpy_setup.run_setup</text>
</g>
<!-- wodenpy__wodenpy_setup__run_setup&#45;&gt;wodenpy__wodenpy_setup__git_helper__retrieve_gitdict -->
<g id="edge26" class="edge">
<title>wodenpy__wodenpy_setup__run_setup&#45;&gt;wodenpy__wodenpy_setup__git_helper__retrieve_gitdict</title>
<path fill="none" stroke="#000000" d="M365.77,-168.13C396.84,-205.55 474.24,-290.67 561.16,-325 637.39,-355.11 865.12,-357.72 994.01,-356.61"/>
<polygon fill="#000000" stroke="#000000" points="994.3,-360.11 1004.26,-356.52 994.23,-353.11 994.3,-360.11"/>
</g>
<!-- wodenpy__wodenpy_setup__run_setup&#45;&gt;wodenpy__wodenpy_setup__run_setup__check_args -->
<g id="edge12" class="edge">
<title>wodenpy__wodenpy_setup__run_setup&#45;&gt;wodenpy__wodenpy_setup__run_setup__check_args</title>
<path fill="none" stroke="#838b8b" stroke-dasharray="5,2" d="M525.2,-150C574.16,-150 624.69,-150 663.89,-150"/>
<polygon fill="#838b8b" stroke="#838b8b" points="664.12,-153.5 674.12,-150 664.12,-146.5 664.12,-153.5"/>
</g>
<!-- wodenpy__wodenpy_setup__run_setup__get_antenna_order -->
<g id="node11" class="node">
<title>wodenpy__wodenpy_setup__run_setup__get_antenna_order</title>
<ellipse fill="#65feff" fill-opacity="0.698039" stroke="black" cx="1086.56" cy="-150" rx="97.48" ry="18"/>
<text text-anchor="middle" x="1086.56" y="-146.3" font-family="Times,serif" font-size="14.00" fill="#000000">get_antenna_order</text>
</g>
<!-- wodenpy__wodenpy_setup__run_setup&#45;&gt;wodenpy__wodenpy_setup__run_setup__get_antenna_order -->
<g id="edge7" class="edge">
<title>wodenpy__wodenpy_setup__run_setup&#45;&gt;wodenpy__wodenpy_setup__run_setup__get_antenna_order</title>
<path fill="none" stroke="#838b8b" stroke-dasharray="5,2" d="M447.44,-135.01C483.06,-130.15 523.86,-125.39 561.16,-123 716.25,-113.06 755.87,-111.1 910.83,-123 942.86,-125.46 977.91,-130.42 1008.16,-135.43"/>
<polygon fill="#838b8b" stroke="#838b8b" points="1007.77,-138.91 1018.22,-137.13 1008.94,-132.01 1007.77,-138.91"/>
</g>
<!-- wodenpy__wodenpy_setup__run_setup&#45;&gt;wodenpy__wodenpy_setup__run_setup__get_code_version -->
<g id="edge10" class="edge">
<title>wodenpy__wodenpy_setup__run_setup&#45;&gt;wodenpy__wodenpy_setup__run_setup__get_code_version</title>
<path fill="none" stroke="#838b8b" stroke-dasharray="5,2" d="M389.55,-167.62C430.99,-186.04 499.48,-214.51 561.16,-231 588.49,-238.31 618.8,-243.86 646.35,-247.97"/>
<polygon fill="#838b8b" stroke="#838b8b" points="645.97,-251.45 656.37,-249.42 646.97,-244.53 645.97,-251.45"/>
</g>
<!-- wodenpy__wodenpy_setup__run_setup&#45;&gt;wodenpy__wodenpy_setup__run_setup__get_parser -->
<g id="edge11" class="edge">
<title>wodenpy__wodenpy_setup__run_setup&#45;&gt;wodenpy__wodenpy_setup__run_setup__get_parser</title>
<path fill="none" stroke="#838b8b" stroke-dasharray="5,2" d="M454.39,-164.51C523.42,-174.22 612.13,-186.71 671.13,-195.01"/>
<polygon fill="#838b8b" stroke="#838b8b" points="670.67,-198.48 681.06,-196.41 671.65,-191.55 670.67,-198.48"/>
</g>
<!-- wodenpy__wodenpy_setup__run_setup__select_argument_and_check -->
<g id="node14" class="node">
<title>wodenpy__wodenpy_setup__run_setup__select_argument_and_check</title>
<ellipse fill="#65feff" fill-opacity="0.698039" stroke="black" cx="1086.56" cy="-96" rx="139.98" ry="18"/>
<text text-anchor="middle" x="1086.56" y="-92.3" font-family="Times,serif" font-size="14.00" fill="#000000">select_argument_and_check</text>
</g>
<!-- wodenpy__wodenpy_setup__run_setup&#45;&gt;wodenpy__wodenpy_setup__run_setup__select_argument_and_check -->
<g id="edge9" class="edge">
<title>wodenpy__wodenpy_setup__run_setup&#45;&gt;wodenpy__wodenpy_setup__run_setup__select_argument_and_check</title>
<path fill="none" stroke="#838b8b" stroke-dasharray="5,2" d="M422.28,-133.51C462.73,-124.86 514.52,-115.03 561.16,-110 687.8,-96.33 832.59,-93.42 937.9,-93.59"/>
<polygon fill="#838b8b" stroke="#838b8b" points="937.96,-97.09 947.97,-93.62 937.98,-90.09 937.96,-97.09"/>
</g>
<!-- wodenpy__wodenpy_setup__run_setup__select_correct_enh -->
<g id="node15" class="node">
<title>wodenpy__wodenpy_setup__run_setup__select_correct_enh</title>
<ellipse fill="#65feff" fill-opacity="0.698039" stroke="black" cx="1086.56" cy="-42" rx="96.68" ry="18"/>
<text text-anchor="middle" x="1086.56" y="-38.3" font-family="Times,serif" font-size="14.00" fill="#000000">select_correct_enh</text>
</g>
<!-- wodenpy__wodenpy_setup__run_setup&#45;&gt;wodenpy__wodenpy_setup__run_setup__select_correct_enh -->
<g id="edge8" class="edge">
<title>wodenpy__wodenpy_setup__run_setup&#45;&gt;wodenpy__wodenpy_setup__run_setup__select_correct_enh</title>
<path fill="none" stroke="#838b8b" stroke-dasharray="5,2" d="M400.69,-132.7C442.81,-118.66 505.23,-99.53 561.16,-89 705.18,-61.88 874.49,-50.29 980.93,-45.42"/>
<polygon fill="#838b8b" stroke="#838b8b" points="981.19,-48.91 991.03,-44.97 980.88,-41.92 981.19,-48.91"/>
</g>
<!-- run_woden__main&#45;&gt;run_woden__read_skymodel_thread -->
<g id="edge21" class="edge">
<title>run_woden__main&#45;&gt;run_woden__read_skymodel_thread</title>
<path fill="none" stroke="#000000" d="M384.37,-441C434.22,-441 531.28,-441 610.66,-441"/>
<polygon fill="#000000" stroke="#000000" points="610.74,-444.5 620.74,-441 610.74,-437.5 610.74,-444.5"/>
</g>
<!-- run_woden__main&#45;&gt;run_woden__woden_thread -->
<g id="edge19" class="edge">
<title>run_woden__main&#45;&gt;run_woden__woden_thread</title>
<path fill="none" stroke="#000000" d="M383.4,-444.81C418.3,-449.02 475.75,-456.11 525.16,-463 570.75,-469.36 621.81,-477.13 662.14,-483.42"/>
<polygon fill="#000000" stroke="#000000" points="661.74,-486.9 672.16,-484.99 662.82,-479.99 661.74,-486.9"/>
</g>
<!-- run_woden__main&#45;&gt;wodenpy__wodenpy_setup__run_setup__check_args -->
<g id="edge23" class="edge">
<title>run_woden__main&#45;&gt;wodenpy__wodenpy_setup__run_setup__check_args</title>
<path fill="none" stroke="#000000" d="M382.43,-447.17C421.38,-452.91 487.54,-455.81 525.16,-419 602.88,-342.95 484.51,-254.14 561.16,-177 588.71,-149.28 632.15,-142.52 668.71,-142.7"/>
<polygon fill="#000000" stroke="#000000" points="668.75,-146.2 678.83,-142.92 668.91,-139.2 668.75,-146.2"/>
</g>
<!-- run_woden__main&#45;&gt;wodenpy__wodenpy_setup__run_setup__get_antenna_order -->
<g id="edge20" class="edge">
<title>run_woden__main&#45;&gt;wodenpy__wodenpy_setup__run_setup__get_antenna_order</title>
<path fill="none" stroke="#000000" d="M383.46,-445.07C420.77,-448.09 482.63,-447.61 525.16,-419 552.24,-400.78 534.75,-374.17 561.16,-355 689.41,-261.88 792.72,-390.69 910.83,-285 950.11,-249.85 906.85,-206.35 946.83,-172 956.31,-163.85 967.57,-158.08 979.5,-154.07"/>
<polygon fill="#000000" stroke="#000000" points="980.59,-157.4 989.2,-151.21 978.61,-150.68 980.59,-157.4"/>
</g>
<!-- run_woden__main&#45;&gt;wodenpy__wodenpy_setup__run_setup__get_code_version -->
<g id="edge24" class="edge">
<title>run_woden__main&#45;&gt;wodenpy__wodenpy_setup__run_setup__get_code_version</title>
<path fill="none" stroke="#000000" d="M383.1,-445.45C420.63,-448.95 483.25,-449.04 525.16,-419 554.88,-397.69 535.44,-371.01 561.16,-345 592.96,-312.84 639.11,-290.51 675.87,-276.53"/>
<polygon fill="#000000" stroke="#000000" points="677.31,-279.73 685.48,-272.98 674.88,-273.16 677.31,-279.73"/>
</g>
<!-- run_woden__main&#45;&gt;wodenpy__wodenpy_setup__run_setup__get_parser -->
<g id="edge22" class="edge">
<title>run_woden__main&#45;&gt;wodenpy__wodenpy_setup__run_setup__get_parser</title>
<path fill="none" stroke="#000000" d="M382.53,-446.97C421.27,-452.42 486.9,-454.91 525.16,-419 587.19,-360.78 499.96,-290.09 561.16,-231 589.38,-203.76 633.03,-197.05 669.53,-197.14"/>
<polygon fill="#000000" stroke="#000000" points="669.55,-200.64 679.62,-197.33 669.69,-193.64 669.55,-200.64"/>
</g>
<!-- wodenpy__wodenpy_setup__git_helper__make_gitdict&#45;&gt;wodenpy__wodenpy_setup__git_helper__get_commandline_output -->
<g id="edge25" class="edge">
<title>wodenpy__wodenpy_setup__git_helper__make_gitdict&#45;&gt;wodenpy__wodenpy_setup__git_helper__get_commandline_output</title>
<path fill="none" stroke="#000000" d="M1156.99,-409C1217.73,-409 1307.73,-409 1382.88,-409"/>
<polygon fill="#000000" stroke="#000000" points="1382.91,-412.5 1392.91,-409 1382.91,-405.5 1382.91,-412.5"/>
</g>
<!-- wodenpy__wodenpy_setup__run_setup__check_args&#45;&gt;wodenpy__wodenpy_setup__run_setup__get_antenna_order -->
<g id="edge28" class="edge">
<title>wodenpy__wodenpy_setup__run_setup__check_args&#45;&gt;wodenpy__wodenpy_setup__run_setup__get_antenna_order</title>
<path fill="none" stroke="#000000" d="M798.11,-150C847.94,-150 919.53,-150 978.79,-150"/>
<polygon fill="#000000" stroke="#000000" points="978.95,-153.5 988.95,-150 978.95,-146.5 978.95,-153.5"/>
</g>
<!-- wodenpy__wodenpy_setup__run_setup__check_args&#45;&gt;wodenpy__wodenpy_setup__run_setup__select_argument_and_check -->
<g id="edge30" class="edge">
<title>wodenpy__wodenpy_setup__run_setup__check_args&#45;&gt;wodenpy__wodenpy_setup__run_setup__select_argument_and_check</title>
<path fill="none" stroke="#000000" d="M793.86,-143.61C827.87,-139.58 871.9,-134.02 910.83,-128 939.46,-123.57 970.62,-118.08 998.59,-112.91"/>
<polygon fill="#000000" stroke="#000000" points="999.55,-116.29 1008.74,-111.02 998.26,-109.41 999.55,-116.29"/>
</g>
<!-- wodenpy__wodenpy_setup__run_setup__check_args&#45;&gt;wodenpy__wodenpy_setup__run_setup__select_correct_enh -->
<g id="edge29" class="edge">
<title>wodenpy__wodenpy_setup__run_setup__check_args&#45;&gt;wodenpy__wodenpy_setup__run_setup__select_correct_enh</title>
<path fill="none" stroke="#000000" d="M795.7,-154.87C831.61,-155.02 876.99,-149.9 910.83,-128 936.62,-111.31 921.61,-86.54 946.83,-69 958.53,-60.86 972.07,-55.03 986,-50.87"/>
<polygon fill="#000000" stroke="#000000" points="986.95,-54.24 995.7,-48.25 985.13,-47.48 986.95,-54.24"/>
</g>
<!-- wodenpy__wodenpy_setup__run_setup__get_code_version&#45;&gt;wodenpy__wodenpy_setup__git_helper__retrieve_gitdict -->
<g id="edge31" class="edge">
<title>wodenpy__wodenpy_setup__run_setup__get_code_version&#45;&gt;wodenpy__wodenpy_setup__git_helper__retrieve_gitdict</title>
<path fill="none" stroke="#000000" d="M821.48,-263.9C850.17,-267.17 882.21,-272.21 910.83,-280 923.98,-283.58 992.86,-313.74 1040.11,-334.71"/>
<polygon fill="#000000" stroke="#000000" points="1038.98,-338.04 1049.54,-338.9 1041.83,-331.64 1038.98,-338.04"/>
</g>
<!-- wodenpy__wodenpy_setup__run_setup__get_parser__SmartFormatter -->
<g id="node16" class="node">
<title>wodenpy__wodenpy_setup__run_setup__get_parser__SmartFormatter</title>
<ellipse fill="#32feff" fill-opacity="0.698039" stroke="black" cx="1086.56" cy="-204" rx="87.18" ry="18"/>
<text text-anchor="middle" x="1086.56" y="-200.3" font-family="Times,serif" font-size="14.00" fill="#000000">SmartFormatter</text>
</g>
<!-- wodenpy__wodenpy_setup__run_setup__get_parser&#45;&gt;wodenpy__wodenpy_setup__run_setup__get_parser__SmartFormatter -->
<g id="edge13" class="edge">
<title>wodenpy__wodenpy_setup__run_setup__get_parser&#45;&gt;wodenpy__wodenpy_setup__run_setup__get_parser__SmartFormatter</title>
<path fill="none" stroke="#838b8b" stroke-dasharray="5,2" d="M794.16,-198.85C848.23,-197.07 930.27,-196.78 993.55,-197.97"/>
<polygon fill="#838b8b" stroke="#838b8b" points="993.86,-201.48 1003.93,-198.18 994.01,-194.48 993.86,-201.48"/>
</g>
<!-- wodenpy__wodenpy_setup__run_setup__get_parser&#45;&gt;wodenpy__wodenpy_setup__run_setup__get_parser__SmartFormatter -->
<g id="edge27" class="edge">
<title>wodenpy__wodenpy_setup__run_setup__get_parser&#45;&gt;wodenpy__wodenpy_setup__run_setup__get_parser__SmartFormatter</title>
<path fill="none" stroke="#000000" d="M794.16,-209.15C848.23,-210.93 930.27,-211.22 993.55,-210.03"/>
<polygon fill="#000000" stroke="#000000" points="994.01,-213.52 1003.93,-209.82 993.86,-206.52 994.01,-213.52"/>
</g>
<!-- wodenpy__wodenpy_setup__run_setup__get_parser__SmartFormatter___split_lines -->
<g id="node17" class="node">
<title>wodenpy__wodenpy_setup__run_setup__get_parser__SmartFormatter___split_lines</title>
<ellipse fill="#00feff" fill-opacity="0.698039" stroke="black" cx="1520.69" cy="-210" rx="61.99" ry="18"/>
<text text-anchor="middle" x="1520.69" y="-206.3" font-family="Times,serif" font-size="14.00" fill="#000000">_split_lines</text>
</g>
<!-- wodenpy__wodenpy_setup__run_setup__get_parser__SmartFormatter&#45;&gt;wodenpy__wodenpy_setup__run_setup__get_parser__SmartFormatter___split_lines -->
<g id="edge14" class="edge">
<title>wodenpy__wodenpy_setup__run_setup__get_parser__SmartFormatter&#45;&gt;wodenpy__wodenpy_setup__run_setup__get_parser__SmartFormatter___split_lines</title>
<path fill="none" stroke="#838b8b" stroke-dasharray="5,2" d="M1173.71,-205.2C1254.26,-206.31 1373.11,-207.96 1448.44,-209.01"/>
<polygon fill="#838b8b" stroke="#838b8b" points="1448.72,-212.51 1458.77,-209.15 1448.82,-205.52 1448.72,-212.51"/>
</g>
</g>
</svg>
