<?xml version="1.0" encoding="UTF-8" standalone="no"?>
<!DOCTYPE svg PUBLIC "-//W3C//DTD SVG 1.1//EN"
 "http://www.w3.org/Graphics/SVG/1.1/DTD/svg11.dtd">
<!-- Generated by graphviz version 2.43.0 (0)
 -->
<!-- Title: G Pages: 1 -->
<svg width="1559pt" height="390pt"
 viewBox="0.00 0.00 1559.48 390.08" xmlns="http://www.w3.org/2000/svg" xmlns:xlink="http://www.w3.org/1999/xlink">
<g id="graph0" class="graph" transform="scale(1 1) rotate(0) translate(4 386.08)">
<title>G</title>
<polygon fill="white" stroke="transparent" points="-4,4 -4,-386.08 1555.48,-386.08 1555.48,4 -4,4"/>
<g id="clust1" class="cluster">
<title>cluster_G</title>
<path fill="#808080" fill-opacity="0.094118" stroke="black" d="M20,-8C20,-8 1531.48,-8 1531.48,-8 1537.48,-8 1543.48,-14 1543.48,-20 1543.48,-20 1543.48,-346 1543.48,-346 1543.48,-352 1537.48,-358 1531.48,-358 1531.48,-358 20,-358 20,-358 14,-358 8,-352 8,-346 8,-346 8,-20 8,-20 8,-14 14,-8 20,-8"/>
</g>
<g id="clust2" class="cluster">
<title>cluster_run_woden</title>
<path fill="#808080" fill-opacity="0.094118" stroke="black" d="M557.11,-211C557.11,-211 1055.01,-211 1055.01,-211 1061.01,-211 1067.01,-217 1067.01,-223 1067.01,-223 1067.01,-328 1067.01,-328 1067.01,-334 1061.01,-340 1055.01,-340 1055.01,-340 557.11,-340 557.11,-340 551.11,-340 545.11,-334 545.11,-328 545.11,-328 545.11,-223 545.11,-223 545.11,-217 551.11,-211 557.11,-211"/>
<text text-anchor="middle" x="806.06" y="-324.8" font-family="Times,serif" font-size="14.00">run_woden</text>
</g>
<g id="clust3" class="cluster">
<title>cluster_wodenpy__array_layout__create_array_layout</title>
<path fill="#808080" fill-opacity="0.094118" stroke="black" d="M871.93,-74C871.93,-74 1523.48,-74 1523.48,-74 1529.48,-74 1535.48,-80 1535.48,-86 1535.48,-86 1535.48,-191 1535.48,-191 1535.48,-197 1529.48,-203 1523.48,-203 1523.48,-203 871.93,-203 871.93,-203 865.93,-203 859.93,-197 859.93,-191 859.93,-191 859.93,-86 859.93,-86 859.93,-80 865.93,-74 871.93,-74"/>
<text text-anchor="middle" x="1197.7" y="-187.8" font-family="Times,serif" font-size="14.00">wodenpy.array_layout.create_array_layout</text>
</g>
<g id="clust4" class="cluster">
<title>cluster_wodenpy__array_layout__precession</title>
<path fill="#808080" fill-opacity="0.094118" stroke="black" d="M433.62,-16C433.62,-16 740.19,-16 740.19,-16 746.19,-16 752.19,-22 752.19,-28 752.19,-28 752.19,-79 752.19,-79 752.19,-85 746.19,-91 740.19,-91 740.19,-91 433.62,-91 433.62,-91 427.62,-91 421.62,-85 421.62,-79 421.62,-79 421.62,-28 421.62,-28 421.62,-22 427.62,-16 433.62,-16"/>
<text text-anchor="middle" x="586.9" y="-75.8" font-family="Times,serif" font-size="14.00">wodenpy.array_layout.precession</text>
</g>
<!-- run_woden -->
<g id="node1" class="node">
<title>run_woden</title>
<ellipse fill="#ffffff" fill-opacity="0.698039" stroke="black" cx="180.44" cy="-255" rx="61.99" ry="18"/>
<text text-anchor="middle" x="180.44" y="-251.3" font-family="Times,serif" font-size="14.00" fill="#000000">run_woden</text>
</g>
<!-- run_woden__main -->
<g id="node4" class="node">
<title>run_woden__main</title>
<ellipse fill="#fecccc" fill-opacity="0.698039" stroke="black" cx="586.9" cy="-237" rx="33.6" ry="18"/>
<text text-anchor="middle" x="586.9" y="-233.3" font-family="Times,serif" font-size="14.00" fill="#000000">main</text>
</g>
<!-- run_woden&#45;&gt;run_woden__main -->
<g id="edge3" class="edge">
<title>run_woden&#45;&gt;run_woden__main</title>
<path fill="none" stroke="#838b8b" stroke-dasharray="5,2" d="M237.25,-247.69C318.94,-241.34 469.34,-234.81 542.98,-234.55"/>
<polygon fill="#838b8b" stroke="#838b8b" points="543.27,-238.05 553.28,-234.56 543.28,-231.05 543.27,-238.05"/>
</g>
<!-- run_woden&#45;&gt;run_woden__main -->
<g id="edge10" class="edge">
<title>run_woden&#45;&gt;run_woden__main</title>
<path fill="none" stroke="#000000" d="M241.99,-257.29C325.17,-256.15 472.61,-249.36 544.36,-243.15"/>
<polygon fill="#000000" stroke="#000000" points="544.74,-246.63 554.38,-242.23 544.1,-239.66 544.74,-246.63"/>
</g>
<!-- run_woden__read_skymodel_thread -->
<g id="node5" class="node">
<title>run_woden__read_skymodel_thread</title>
<ellipse fill="#fecccc" fill-opacity="0.698039" stroke="black" cx="943.97" cy="-291" rx="115.08" ry="18"/>
<text text-anchor="middle" x="943.97" y="-287.3" font-family="Times,serif" font-size="14.00" fill="#000000">read_skymodel_thread</text>
</g>
<!-- run_woden&#45;&gt;run_woden__read_skymodel_thread -->
<g id="edge2" class="edge">
<title>run_woden&#45;&gt;run_woden__read_skymodel_thread</title>
<path fill="none" stroke="#838b8b" stroke-dasharray="5,2" d="M238.97,-261.08C278.77,-265.07 332.98,-270.07 380.87,-273 531.52,-282.2 705.19,-286.85 819.15,-289.1"/>
<polygon fill="#838b8b" stroke="#838b8b" points="819.24,-292.6 829.3,-289.29 819.37,-285.6 819.24,-292.6"/>
</g>
<!-- run_woden__woden_thread -->
<g id="node6" class="node">
<title>run_woden__woden_thread</title>
<ellipse fill="#fecccc" fill-opacity="0.698039" stroke="black" cx="943.97" cy="-237" rx="76.09" ry="18"/>
<text text-anchor="middle" x="943.97" y="-233.3" font-family="Times,serif" font-size="14.00" fill="#000000">woden_thread</text>
</g>
<!-- run_woden&#45;&gt;run_woden__woden_thread -->
<g id="edge1" class="edge">
<title>run_woden&#45;&gt;run_woden__woden_thread</title>
<path fill="none" stroke="#838b8b" stroke-dasharray="5,2" d="M240.19,-259.9C349.34,-268.11 590.68,-282.05 792.93,-264 821.1,-261.49 851.89,-256.37 878.21,-251.26"/>
<polygon fill="#838b8b" stroke="#838b8b" points="878.94,-254.68 888.07,-249.3 877.58,-247.81 878.94,-254.68"/>
</g>
<!-- wodenpy__array_layout__create_array_layout__calc_XYZ_diffs -->
<g id="node9" class="node">
<title>wodenpy__array_layout__create_array_layout__calc_XYZ_diffs</title>
<ellipse fill="#b2ff65" fill-opacity="0.698039" stroke="black" cx="943.97" cy="-154" rx="76.09" ry="18"/>
<text text-anchor="middle" x="943.97" y="-150.3" font-family="Times,serif" font-size="14.00" fill="#000000">calc_XYZ_diffs</text>
</g>
<!-- run_woden&#45;&gt;wodenpy__array_layout__create_array_layout__calc_XYZ_diffs -->
<g id="edge11" class="edge">
<title>run_woden&#45;&gt;wodenpy__array_layout__create_array_layout__calc_XYZ_diffs</title>
<path fill="none" stroke="#000000" d="M225.42,-242.5C265.59,-231.55 326.77,-216.01 380.87,-207 549.4,-178.92 749.03,-164.51 859.27,-158.17"/>
<polygon fill="#000000" stroke="#000000" points="859.55,-161.66 869.33,-157.6 859.15,-154.67 859.55,-161.66"/>
</g>
<!-- wodenpy__array_layout__create_array_layout__enh2xyz -->
<g id="node10" class="node">
<title>wodenpy__array_layout__create_array_layout__enh2xyz</title>
<ellipse fill="#b2ff65" fill-opacity="0.698039" stroke="black" cx="1219.8" cy="-154" rx="49.29" ry="18"/>
<text text-anchor="middle" x="1219.8" y="-150.3" font-family="Times,serif" font-size="14.00" fill="#000000">enh2xyz</text>
</g>
<!-- run_woden&#45;&gt;wodenpy__array_layout__create_array_layout__enh2xyz -->
<g id="edge9" class="edge">
<title>run_woden&#45;&gt;wodenpy__array_layout__create_array_layout__enh2xyz</title>
<path fill="none" stroke="#000000" d="M207.94,-271.2C245.02,-292.83 315.23,-330.02 380.87,-344 530,-375.77 929.61,-410.1 1067.01,-344 1137.93,-309.88 1186.05,-224.72 1206.97,-180.93"/>
<polygon fill="#000000" stroke="#000000" points="1210.2,-182.29 1211.25,-171.74 1203.85,-179.33 1210.2,-182.29"/>
</g>
<!-- wodenpy__array_layout__create_array_layout -->
<g id="node2" class="node">
<title>wodenpy__array_layout__create_array_layout</title>
<ellipse fill="#ffffff" fill-opacity="0.698039" stroke="black" cx="586.9" cy="-117" rx="206.06" ry="18"/>
<text text-anchor="middle" x="586.9" y="-113.3" font-family="Times,serif" font-size="14.00" fill="#000000">wodenpy.array_layout.create_array_layout</text>
</g>
<!-- wodenpy__array_layout__create_array_layout__RTS_PrecessXYZtoJ2000 -->
<g id="node7" class="node">
<title>wodenpy__array_layout__create_array_layout__RTS_PrecessXYZtoJ2000</title>
<ellipse fill="#b2ff65" fill-opacity="0.698039" stroke="black" cx="1219.8" cy="-100" rx="124.58" ry="18"/>
<text text-anchor="middle" x="1219.8" y="-96.3" font-family="Times,serif" font-size="14.00" fill="#000000">RTS_PrecessXYZtoJ2000</text>
</g>
<!-- wodenpy__array_layout__create_array_layout&#45;&gt;wodenpy__array_layout__create_array_layout__RTS_PrecessXYZtoJ2000 -->
<g id="edge5" class="edge">
<title>wodenpy__array_layout__create_array_layout&#45;&gt;wodenpy__array_layout__create_array_layout__RTS_PrecessXYZtoJ2000</title>
<path fill="none" stroke="#838b8b" stroke-dasharray="5,2" d="M784.06,-111.71C882.46,-109.06 999.01,-105.92 1086.66,-103.56"/>
<polygon fill="#838b8b" stroke="#838b8b" points="1086.76,-107.06 1096.66,-103.29 1086.57,-100.06 1086.76,-107.06"/>
</g>
<!-- wodenpy__array_layout__create_array_layout__RTS_precXYZ -->
<g id="node8" class="node">
<title>wodenpy__array_layout__create_array_layout__RTS_precXYZ</title>
<ellipse fill="#b2ff65" fill-opacity="0.698039" stroke="black" cx="1454.04" cy="-100" rx="73.39" ry="18"/>
<text text-anchor="middle" x="1454.04" y="-96.3" font-family="Times,serif" font-size="14.00" fill="#000000">RTS_precXYZ</text>
</g>
<!-- wodenpy__array_layout__create_array_layout&#45;&gt;wodenpy__array_layout__create_array_layout__RTS_precXYZ -->
<g id="edge6" class="edge">
<title>wodenpy__array_layout__create_array_layout&#45;&gt;wodenpy__array_layout__create_array_layout__RTS_precXYZ</title>
<path fill="none" stroke="#838b8b" stroke-dasharray="5,2" d="M715.09,-102.89C817.54,-92.27 965.34,-78.62 1095.01,-73 1205.83,-68.2 1234.49,-59.5 1344.59,-73 1362.06,-75.14 1380.76,-79.15 1397.63,-83.44"/>
<polygon fill="#838b8b" stroke="#838b8b" points="1396.77,-86.84 1407.33,-85.99 1398.54,-80.07 1396.77,-86.84"/>
</g>
<!-- wodenpy__array_layout__create_array_layout&#45;&gt;wodenpy__array_layout__create_array_layout__calc_XYZ_diffs -->
<g id="edge7" class="edge">
<title>wodenpy__array_layout__create_array_layout&#45;&gt;wodenpy__array_layout__create_array_layout__calc_XYZ_diffs</title>
<path fill="none" stroke="#838b8b" stroke-dasharray="5,2" d="M719.87,-130.75C768.26,-135.79 821.5,-141.34 863.84,-145.75"/>
<polygon fill="#838b8b" stroke="#838b8b" points="863.49,-149.24 873.8,-146.79 864.22,-142.27 863.49,-149.24"/>
</g>
<!-- wodenpy__array_layout__create_array_layout&#45;&gt;wodenpy__array_layout__create_array_layout__enh2xyz -->
<g id="edge4" class="edge">
<title>wodenpy__array_layout__create_array_layout&#45;&gt;wodenpy__array_layout__create_array_layout__enh2xyz</title>
<path fill="none" stroke="#838b8b" stroke-dasharray="5,2" d="M790.84,-114.29C876.28,-114.94 976.66,-118.08 1067.01,-127 1100.61,-130.32 1137.95,-136.92 1167.18,-142.77"/>
<polygon fill="#838b8b" stroke="#838b8b" points="1166.67,-146.23 1177.17,-144.8 1168.06,-139.37 1166.67,-146.23"/>
</g>
<!-- wodenpy__array_layout__precession -->
<g id="node3" class="node">
<title>wodenpy__array_layout__precession</title>
<ellipse fill="#ffffff" fill-opacity="0.698039" stroke="black" cx="180.44" cy="-42" rx="164.37" ry="18"/>
<text text-anchor="middle" x="180.44" y="-38.3" font-family="Times,serif" font-size="14.00" fill="#000000">wodenpy.array_layout.precession</text>
</g>
<!-- wodenpy__array_layout__precession__RTS_Precess_LST_Lat_to_J2000 -->
<g id="node11" class="node">
<title>wodenpy__array_layout__precession__RTS_Precess_LST_Lat_to_J2000</title>
<ellipse fill="#65feff" fill-opacity="0.698039" stroke="black" cx="586.9" cy="-42" rx="157.07" ry="18"/>
<text text-anchor="middle" x="586.9" y="-38.3" font-family="Times,serif" font-size="14.00" fill="#000000">RTS_Precess_LST_Lat_to_J2000</text>
</g>
<!-- wodenpy__array_layout__precession&#45;&gt;wodenpy__array_layout__precession__RTS_Precess_LST_Lat_to_J2000 -->
<g id="edge8" class="edge">
<title>wodenpy__array_layout__precession&#45;&gt;wodenpy__array_layout__precession__RTS_Precess_LST_Lat_to_J2000</title>
<path fill="none" stroke="#838b8b" stroke-dasharray="5,2" d="M345.07,-42C369.53,-42 394.77,-42 419.29,-42"/>
<polygon fill="#838b8b" stroke="#838b8b" points="419.38,-45.5 429.38,-42 419.38,-38.5 419.38,-45.5"/>
</g>
<!-- run_woden__main&#45;&gt;run_woden__read_skymodel_thread -->
<g id="edge12" class="edge">
<title>run_woden__main&#45;&gt;run_woden__read_skymodel_thread</title>
<path fill="none" stroke="#000000" d="M620.71,-239.47C661.31,-242.77 732.48,-249.34 792.93,-259 818.13,-263.03 845.48,-268.52 869.84,-273.82"/>
<polygon fill="#000000" stroke="#000000" points="869.21,-277.27 879.73,-276 870.72,-270.43 869.21,-277.27"/>
</g>
<!-- run_woden__main&#45;&gt;run_woden__woden_thread -->
<g id="edge14" class="edge">
<title>run_woden__main&#45;&gt;run_woden__woden_thread</title>
<path fill="none" stroke="#000000" d="M620.99,-237C674.54,-237 781.85,-237 857.85,-237"/>
<polygon fill="#000000" stroke="#000000" points="857.89,-240.5 867.89,-237 857.89,-233.5 857.89,-240.5"/>
</g>
<!-- run_woden__main&#45;&gt;wodenpy__array_layout__create_array_layout__calc_XYZ_diffs -->
<g id="edge15" class="edge">
<title>run_woden__main&#45;&gt;wodenpy__array_layout__create_array_layout__calc_XYZ_diffs</title>
<path fill="none" stroke="#000000" d="M620.64,-238.39C662.09,-239.07 735.07,-236.58 792.93,-215 811.19,-208.19 811.45,-198.58 828.93,-190 845.14,-182.05 863.49,-175.34 880.66,-169.96"/>
<polygon fill="#000000" stroke="#000000" points="882.05,-173.19 890.6,-166.94 880.02,-166.49 882.05,-173.19"/>
</g>
<!-- run_woden__main&#45;&gt;wodenpy__array_layout__create_array_layout__enh2xyz -->
<g id="edge13" class="edge">
<title>run_woden__main&#45;&gt;wodenpy__array_layout__create_array_layout__enh2xyz</title>
<path fill="none" stroke="#000000" d="M620.25,-233.84C660.69,-229.82 732,-222.5 792.93,-215 808.97,-213.03 812.92,-212.09 828.93,-210 934.64,-196.22 961.59,-196.78 1067.01,-181 1099.93,-176.07 1136.68,-169.56 1165.77,-164.17"/>
<polygon fill="#000000" stroke="#000000" points="1166.54,-167.59 1175.72,-162.31 1165.25,-160.7 1166.54,-167.59"/>
</g>
<!-- wodenpy__array_layout__create_array_layout__RTS_PrecessXYZtoJ2000&#45;&gt;wodenpy__array_layout__create_array_layout__RTS_precXYZ -->
<g id="edge16" class="edge">
<title>wodenpy__array_layout__create_array_layout__RTS_PrecessXYZtoJ2000&#45;&gt;wodenpy__array_layout__create_array_layout__RTS_precXYZ</title>
<path fill="none" stroke="#000000" d="M1344.74,-100C1353.42,-100 1362.05,-100 1370.42,-100"/>
<polygon fill="#000000" stroke="#000000" points="1370.49,-103.5 1380.49,-100 1370.49,-96.5 1370.49,-103.5"/>
</g>
<!-- wodenpy__array_layout__create_array_layout__calc_XYZ_diffs&#45;&gt;wodenpy__array_layout__create_array_layout__RTS_PrecessXYZtoJ2000 -->
<g id="edge18" class="edge">
<title>wodenpy__array_layout__create_array_layout__calc_XYZ_diffs&#45;&gt;wodenpy__array_layout__create_array_layout__RTS_PrecessXYZtoJ2000</title>
<path fill="none" stroke="#000000" d="M1005.56,-143.44C1025.19,-139.92 1047.05,-135.9 1067.01,-132 1090.72,-127.37 1116.45,-122.05 1139.87,-117.1"/>
<polygon fill="#000000" stroke="#000000" points="1140.69,-120.5 1149.75,-115.01 1139.24,-113.66 1140.69,-120.5"/>
</g>
<!-- wodenpy__array_layout__create_array_layout__calc_XYZ_diffs&#45;&gt;wodenpy__array_layout__create_array_layout__enh2xyz -->
<g id="edge17" class="edge">
<title>wodenpy__array_layout__create_array_layout__calc_XYZ_diffs&#45;&gt;wodenpy__array_layout__create_array_layout__enh2xyz</title>
<path fill="none" stroke="#000000" d="M1020.16,-154C1064.24,-154 1119.12,-154 1160.01,-154"/>
<polygon fill="#000000" stroke="#000000" points="1160.1,-157.5 1170.1,-154 1160.1,-150.5 1160.1,-157.5"/>
</g>
</g>
</svg>
